<svg xmlns="http://www.w3.org/2000/svg" width="120" height="80" viewBox="0 0 120 80"><g font-weight="400" font-size="40" font-family="sans-serif" letter-spacing="0" word-spacing="0" fill="#fff"><path d="M33.541 1.149h4.96v37.08h-4.96V1.149zm-5.2 15.52q0 3.24-.72 5.76-.68 2.48-1.96 4.2-1.28 1.72-3.08 2.6-1.76.88-3.96.88t-4-.88q-1.76-.88-3.04-2.6-1.28-1.72-2-4.2-.68-2.52-.68-5.76 0-3.24.68-5.72.72-2.52 2-4.24 1.28-1.72 3.04-2.6 1.8-.88 4-.88t3.96.88q1.8.88 3.08 2.6 1.28 1.72 1.96 4.24.72 2.48.72 5.72zm-5.04 0q0-4.32-1.24-6.76-1.2-2.44-3.44-2.44t-3.48 2.44q-1.2 2.44-1.2 6.76t1.2 6.76q1.24 2.44 3.48 2.44t3.44-2.44q1.24-2.44 1.24-6.76zM67.24 1.349h4.96v18.56h-4.96V1.349zm5.68 36.68h-24.4v-10.28h18.76v-2.28H48.52v-4H72.2v10.2H53.36v2.32h19.56v4.04zm-29.96-27.36q0-1.84.68-3.44.72-1.6 2-2.76 1.32-1.16 3.08-1.8 1.8-.68 3.96-.68 2.08 0 3.84.68 1.8.64 3.08 1.8 1.28 1.16 2 2.76.76 1.6.76 3.44 0 1.84-.72 3.4-.72 1.56-2 2.72-1.28 1.12-3.08 1.8-1.76.64-3.88.64t-3.92-.64q-1.8-.68-3.08-1.8-1.28-1.16-2-2.72-.72-1.56-.72-3.4zm5 0q0 2.12 1.24 3.32 1.24 1.16 3.44 1.16 2.16 0 3.4-1.16 1.28-1.2 1.28-3.32 0-2.16-1.28-3.32-1.24-1.2-3.4-1.2t-3.44 1.2q-1.24 1.16-1.24 3.32zm40.099-2.28q-1.32.08-2.64.08h-5.8v-4.12h9.2q2.08 0 4.2-.08-.24 6.68-2.64 12.68 1.04 2.44 2.64 4.56 1.64 2.12 3.72 3.88V1.549h4.72v13.32h3.12V1.149h4.8v37.08h-4.8v-19.24h-3.12v18.32h-4.72v-9.44l-2.12 1.88q-1.76-1.28-3.44-3.44t-2.96-4.8q-1.4 2.52-3.2 4.8-1.8 2.28-4.08 4.36l-3.56-2.72q2.64-2.36 4.56-4.84 1.96-2.52 3.24-5 1.28-2.52 1.96-4.96.72-2.48.92-4.76z" style="-inkscape-font-specification:'NanumBarunGothic Bold'" font-weight="700" font-family="NanumBarunGothic"/><path d="M25.078 60.696l4.463 4.463-1.387 1.377-4.453-4.463-4.463 4.463-1.386-1.377 4.463-4.463-4.463-4.463 1.386-1.377 4.463 4.454 4.463-4.463 1.387 1.377-4.473 4.472z" font-size="20" style="line-height:125%"/><path d="M74.72 60.011h-3.88v5.24h-8.48v1.48H58v-1.48h-7.88v-3.48H58v-1.76h-8.84q0 2.68-.2 5.28-.16 2.56-.72 5-.48 2.24-1.32 4.24-.8 2-2.12 3.68-.52-.56-1.52-1.56-1-.96-2.12-1.84 1.16-1.48 1.84-3.08.72-1.64 1.12-3.4.6-2.64.68-5.36.08-2.76.08-5.32v-11.52H58q0-1.72-.36-3.6h5.08q-.16.96-.28 1.84-.08.84-.08 1.76h11.28v3.64H49.16v6.76H58v-1.64h-7.64v-3.48h7.6l-.16-1.28h4.76l-.2 1.28h8.48v5.12h3.88v3.48zm-3 18.68h-4.36v-1.44H54.2v1.6h-4.44v-11.6h21.96v11.44zm-5.24-22.16v-1.64h-4.12v1.64h4.12zm0 5.24v-1.76h-4.12v1.76h4.12zm.88 12v-3.16H54.2v3.16h13.16zm34.259-27.16h7.16v6.96h-4.24v-3.36h-10.8v3.36h-4.2v-6.96h7.56q0-.88-.16-1.92-.12-1.04-.28-2.12h5.28q-.2 1.12-.28 2.16-.04 1-.04 1.88zm-1.44 8.2l2.36-2.36q.76.68 1.72 1.48 1 .8 2 1.56 1.04.76 1.96 1.4.96.64 1.64.96-.2.2-.52.64t-.68.92q-.36.44-.68.88-.32.44-.52.64-.68-.44-1.6-1.16t-1.92-1.56q-.96-.84-1.96-1.72t-1.8-1.68zm-11.48 3.48q.84-.52 1.76-1.16.96-.68 1.84-1.44.92-.76 1.68-1.56.76-.8 1.24-1.56.12.08.56.44.44.32.96.72.52.4.92.76.4.32.48.36-.56.72-1.4 1.6-.84.88-1.84 1.8-1 .88-2.04 1.72-1.04.8-2 1.4-.32-.68-.92-1.6-.6-.92-1.24-1.48zm13.96 11.96h-7.12v3.68h7.12v-3.68zm-15.44-3.84q1.52-.72 3.08-1.84t3-2.48q1.48-1.36 2.76-2.88 1.28-1.56 2.24-3.16.36.2.92.52.56.28 1.08.6.52.28.88.48.4.2.4.24-.08.2-.12.36-.04.16-.2.36.68.84 1.76 1.8 1.08.96 2.4 1.92 1.32.96 2.76 1.84 1.48.84 2.92 1.48-.28.32-.64.8-.36.44-.76.96l-.72.96q-.36.48-.6.84-.04 0-.24-.12-.16-.16-.4-.32l-.48-.32q-.24-.16-.36-.28v10.12h-4.24v-.8h-7.12v1.32h-4.28v-10.12l-1.32.8q-.12-.16-.48-.56-.32-.4-.76-.84-.4-.48-.8-.92-.4-.44-.68-.76zm7 .24h10.4q-.64-.48-1.4-1.08-.72-.6-1.48-1.24-.72-.68-1.4-1.36-.68-.68-1.16-1.28-.6.72-1.28 1.44t-1.36 1.4q-.68.64-1.28 1.2-.6.56-1.04.92zm-13.84-24.04h5.32q-.2 1.28-.28 2.52-.04 1.2-.04 2.36v2.36h2.76v3.96h-2.76v4.12l1.56-.76q.8 1.52 1.56 3.04.8 1.48 1.4 3.12-.24.12-.68.36-.44.24-.96.48l-1.04.48q-.52.2-.84.32-.08-.48-.24-.96-.16-.48-.32-.88-.16-.44-.32-.76-.12-.32-.12-.44v16.88h-4.68v-12.56l-1.92 3.52q-.28-.36-.72-.8-.44-.48-.92-.88-.44-.44-.88-.8-.4-.36-.6-.52 1.32-1.84 2.2-3.44.88-1.6 1.48-3.16t.92-3.08q.32-1.56.48-3.28h-3.72v-3.96h3.68v-2.44q0-1.12-.08-2.36-.08-1.24-.24-2.44z" style="-inkscape-font-specification:'NanumBarunGothic Bold'" font-weight="700" font-family="NanumBarunGothic"/></g></svg>