<svg xmlns="http://www.w3.org/2000/svg" width="965" height="742" viewBox="0 0 965.00007 741.99997"><g word-spacing="0" fill="#fff"><path style="-inkscape-font-specification:'NanumBarunGothic Bold'" d="M49.1 0h9.874v73.824H49.1V0zM38.746 30.9q0 6.45-1.434 11.467-1.354 4.938-3.902 8.362-2.549 3.424-6.132 5.176-3.504 1.752-7.884 1.752-4.38 0-7.964-1.752-3.504-1.752-6.052-5.176-2.549-3.424-3.982-8.362Q.043 37.35.043 30.899q0-6.45 1.354-11.388 1.433-5.017 3.982-8.441 2.548-3.425 6.052-5.177 3.584-1.752 7.964-1.752 4.38 0 7.884 1.752 3.583 1.752 6.132 5.177 2.548 3.424 3.902 8.441 1.434 4.938 1.434 11.388zm-10.035 0q0-8.602-2.468-13.46-2.39-4.857-6.85-4.857-4.459 0-6.928 4.858-2.389 4.857-2.389 13.458 0 8.601 2.39 13.459 2.468 4.858 6.928 4.858t6.849-4.858q2.468-4.858 2.468-13.459zM116.191.398h9.875V37.35h-9.875V.398zM127.5 73.426H78.92V52.959h37.35v-4.54H78.92v-7.963h47.145v20.307H88.557v4.62H127.5v8.043zM67.85 18.954q0-3.664 1.354-6.85Q70.64 8.92 73.187 6.61q2.628-2.31 6.132-3.584 3.584-1.354 7.884-1.354 4.141 0 7.645 1.354 3.584 1.274 6.133 3.584 2.548 2.31 3.981 5.495 1.514 3.185 1.514 6.849 0 3.663-1.434 6.769-1.433 3.106-3.982 5.415-2.548 2.23-6.132 3.584-3.504 1.274-7.725 1.274-4.22 0-7.804-1.274-3.584-1.354-6.132-3.584-2.549-2.31-3.982-5.415-1.434-3.106-1.434-6.77zm9.955 0q0 4.22 2.469 6.61 2.469 2.31 6.849 2.31 4.3 0 6.769-2.31 2.548-2.39 2.548-6.61 0-4.3-2.548-6.61-2.469-2.39-6.77-2.39-4.3 0-6.848 2.39-2.469 2.31-2.469 6.61zm79.835-4.54q-2.628.16-5.256.16h-11.547V6.37h18.316q4.141 0 8.362-.16-.478 13.3-5.256 25.246 2.07 4.858 5.256 9.078 3.265 4.221 7.406 7.725V.796h9.397v26.52h6.212V0h9.557v73.824h-9.557V35.518h-6.212v36.474h-9.397V53.198l-4.22 3.743q-3.505-2.549-6.85-6.85-3.344-4.3-5.892-9.556-2.788 5.018-6.371 9.557-3.584 4.54-8.123 8.68l-7.088-5.415q5.256-4.699 9.078-9.636 3.903-5.017 6.451-9.955 2.548-5.017 3.902-9.875 1.434-4.937 1.832-9.477z" font-weight="700" font-family="NanumBarunGothic" font-size="40" letter-spacing="0"/><path d="M32.25 118.555l8.885 8.886-2.76 2.741-8.866-8.885-8.886 8.885-2.76-2.741 8.885-8.886-8.886-8.885 2.761-2.741 8.886 8.866 8.885-8.886 2.76 2.742-8.904 8.904z" font-size="20" style="line-height:125%" font-weight="400" font-family="sans-serif" letter-spacing="0"/><path style="-inkscape-font-specification:'NanumBarunGothic Bold'" d="M131.083 117.192h-7.724v10.432h-16.883v2.947h-8.68v-2.947h-15.69v-6.928h15.69v-3.504h-17.6q0 5.335-.399 10.512-.319 5.097-1.433 9.955-.956 4.46-2.628 8.441-1.593 3.982-4.221 7.327-1.036-1.115-3.026-3.106-1.991-1.911-4.221-3.663 2.31-2.947 3.663-6.132 1.434-3.266 2.23-6.77 1.194-5.256 1.354-10.671.159-5.495.159-10.592V89.558h26.121q0-3.425-.717-7.168h10.114q-.318 1.912-.557 3.664-.16 1.672-.16 3.504h22.458v7.247H80.195v13.458h17.6v-3.265h-15.21v-6.928h15.13l-.318-2.549h9.477l-.398 2.549h16.883v10.193h7.724v6.929zm-5.972 37.19h-8.68v-2.867H90.23v3.186h-8.84v-23.095h43.72v22.776zm-10.433-44.119v-3.265h-8.202v3.265h8.202zm0 10.433v-3.504h-8.202v3.504h8.202zm1.752 23.891v-6.291h-26.2v6.291h26.2zm68.207-54.074h14.255v13.857h-8.441v-6.69h-21.503v6.69h-8.361V90.513h15.051q0-1.752-.319-3.822-.238-2.07-.557-4.221h10.512q-.398 2.23-.557 4.3-.08 1.991-.08 3.743zm-2.867 16.326l4.699-4.699q1.513 1.354 3.424 2.947 1.991 1.593 3.982 3.106 2.07 1.513 3.902 2.787 1.911 1.274 3.265 1.911-.398.399-1.035 1.275-.637.876-1.354 1.831-.717.876-1.354 1.752-.637.876-1.035 1.274-1.354-.876-3.185-2.309-1.832-1.433-3.823-3.106-1.911-1.672-3.902-3.424t-3.584-3.345zm-22.856 6.928q1.673-1.035 3.504-2.31 1.912-1.353 3.664-2.866 1.831-1.513 3.344-3.106t2.47-3.106q.238.16 1.114.876.876.637 1.911 1.434 1.036.796 1.832 1.513.796.637.956.717-1.115 1.433-2.788 3.185-1.672 1.752-3.663 3.584-1.991 1.752-4.062 3.424-2.07 1.593-3.981 2.787-.638-1.353-1.832-3.185-1.195-1.832-2.469-2.947zm27.794 23.812h-14.176v7.327h14.176v-7.327zm-30.74-7.645q3.026-1.434 6.132-3.664 3.106-2.23 5.972-4.937 2.947-2.708 5.495-5.734 2.549-3.106 4.46-6.291.717.398 1.832 1.035 1.115.557 2.15 1.195 1.035.557 1.752.955.796.398.796.478-.159.398-.239.717-.08.318-.398.716 1.354 1.673 3.504 3.584t4.779 3.823q2.628 1.911 5.495 3.663 2.946 1.672 5.813 2.947-.557.637-1.274 1.592-.717.876-1.513 1.912l-1.434 1.911q-.716.956-1.194 1.672-.08 0-.478-.239-.319-.318-.796-.637l-.956-.637q-.478-.318-.717-.557v20.148h-8.441v-1.593h-14.176v2.628h-8.521v-20.148l-2.628 1.593q-.239-.319-.956-1.115-.637-.796-1.513-1.672-.796-.956-1.593-1.832-.796-.876-1.353-1.513zm13.936.478h20.706q-1.274-.956-2.787-2.15-1.434-1.195-2.947-2.47-1.434-1.353-2.787-2.707-1.354-1.354-2.31-2.548-1.194 1.433-2.548 2.867-1.354 1.433-2.708 2.787-1.354 1.274-2.548 2.389-1.195 1.115-2.07 1.832zM142.35 82.55h10.591q-.398 2.548-.557 5.017-.08 2.389-.08 4.698v4.699h5.495v7.884h-5.495v8.203l3.106-1.513q1.593 3.026 3.106 6.052 1.593 2.947 2.787 6.212-.478.239-1.354.716-.876.478-1.91.956l-2.071.956q-1.036.398-1.673.637-.16-.956-.478-1.911-.318-.956-.637-1.752-.318-.876-.637-1.514-.239-.637-.239-.876v33.607h-9.317v-25.006l-3.823 7.008q-.557-.716-1.433-1.592-.876-.956-1.832-1.752-.876-.876-1.752-1.593-.796-.717-1.195-1.035 2.628-3.664 4.38-6.85 1.752-3.185 2.947-6.29 1.195-3.107 1.832-6.133.637-3.106.955-6.53h-7.406v-7.884h7.327v-4.858q0-2.23-.16-4.699-.159-2.468-.477-4.857z" font-weight="700" font-family="NanumBarunGothic" font-size="40" letter-spacing="0"/><path style="line-height:100%;-inkscape-font-specification:'Ubuntu Mono Bold'" d="M.043 167.932q8.432-2.3 20.697-4.344 12.52-2.044 27.085-2.044 14.309 0 23.763 4.088 9.454 3.833 14.82 11.243 5.621 7.154 7.921 17.375 2.3 9.965 2.3 22.23v67.712h-31.43v-63.624q0-16.864-3.832-24.274-3.833-7.41-15.586-7.41-3.578 0-7.155.256-3.322.255-7.154.766v94.286H.042v-116.26zm203.594 112.172q-8.688 2.3-21.208 4.6-12.265 2.299-26.83 2.299-14.82 0-24.274-4.088-9.454-4.089-15.076-11.499-5.365-7.665-7.41-17.886-2.044-10.22-2.044-22.485v-66.946h31.429v62.857q0 16.609 3.833 24.785 4.088 7.922 15.586 7.922 7.155 0 14.31-1.278v-94.286h31.684v116.005zm115.184-1.022q-.766.51-3.577 1.789-2.555 1.277-6.9 2.81-4.343 1.278-10.73 2.3-6.133 1.022-14.054 1.022-21.72 0-31.685-12.776-9.965-13.031-9.965-37.817V134.46h-33.217v-26.063h64.646V238.71q0 12.265 4.855 16.609 4.855 4.344 12.265 4.344 9.454 0 15.842-2.556 6.388-2.555 8.432-3.321l4.088 25.296zm107.775 0q-.767.51-3.578 1.789-2.555 1.277-6.899 2.81-4.343 1.278-10.731 2.3-6.133 1.022-14.054 1.022-21.719 0-31.684-12.776-9.965-13.031-9.965-37.817V134.46h-33.218v-26.063h64.646V238.71q0 12.265 4.855 16.609 4.855 4.344 12.265 4.344 9.454 0 15.842-2.556 6.388-2.555 8.432-3.321l4.089 25.296zm46.705-18.652q11.499 0 17.631-1.534 6.133-1.789 6.133-6.899 0-3.322-2.045-5.621-1.788-2.3-5.365-3.833-3.322-1.789-7.922-3.322-4.343-1.533-9.198-3.066-6.9-2.044-14.054-4.6-7.154-2.81-13.031-6.898-5.877-4.089-9.71-10.221-3.833-6.388-3.833-15.842 0-7.666 2.811-14.31 3.066-6.898 9.199-12.009 6.388-5.366 16.097-8.176 9.71-3.066 23.253-3.066 11.753 0 21.719 1.788 10.22 1.789 17.63 5.11l-4.854 26.574q-4.344-1.277-13.543-4.088-9.199-3.066-20.697-3.066-12.01 0-16.353 3.066-4.088 2.81-4.088 6.133 0 2.81 1.788 5.11 2.044 2.044 5.11 3.833 3.322 1.788 7.41 3.577 4.344 1.533 9.2 3.066 6.898 2.3 14.308 5.11 7.41 2.811 13.287 7.155 6.133 4.088 9.965 10.732 3.833 6.388 3.833 15.842 0 7.41-2.81 14.053-2.811 6.644-9.455 11.499-6.388 4.855-16.864 7.665-10.476 2.811-25.807 2.811-15.587 0-26.574-3.577-10.987-3.578-17.63-6.388l4.854-26.319q8.943 3.578 18.908 6.644 10.221 3.066 20.697 3.066zm137.415-35.262c0-10.732-2.13-19.505-6.388-26.319-4.259-6.984-10.732-10.476-19.42-10.476-2.384 0-4.94.17-7.665.511-2.725.17-5.025.34-6.899.511v65.924c2.044 1.362 4.77 2.47 8.177 3.321a42 42 0 0 0 10.22 1.278c7.496 0 13.032-2.981 16.61-8.943 3.576-6.133 5.365-14.735 5.365-25.807zm31.94-1.022c0 9.198-1.022 17.715-3.066 25.551-2.045 7.666-5.026 14.31-8.944 19.93-3.917 5.452-8.858 9.71-14.82 12.777-5.962 3.066-12.86 4.599-20.697 4.599-8.006 0-16.268-1.959-24.785-5.877V742h-31.429V167.932c5.792-1.874 12.862-3.407 21.208-4.6 8.518-1.192 16.865-1.788 25.041-1.788 18.568 0 32.792 5.621 42.672 16.864 9.88 11.243 14.82 26.488 14.82 45.738z" font-weight="700" font-size="255.716" font-family="Ubuntu Mono" letter-spacing="-20"/><path style="line-height:100%;-inkscape-font-specification:'Ubuntu Mono Bold'" d="M694.727 261.707h9.966q4.854-.256 8.432-.767v-27.596q-3.067-.51-7.41-.766-4.344-.511-7.921-.511-4.855 0-9.455.766-4.599.511-8.176 2.044-3.322 1.533-5.366 4.344-2.044 2.81-2.044 7.41 0 8.177 6.132 11.754 6.133 3.322 15.842 3.322zm-2.81-100.674q14.82 0 24.53 3.577 9.965 3.322 15.842 9.71 5.876 6.132 8.432 15.33 2.555 8.944 2.555 20.186v71.546q-6.9 1.533-20.442 3.577t-30.406 2.044q-11.499 0-20.953-2.044-9.198-2.044-15.842-6.644-6.643-4.855-10.22-12.265-3.578-7.665-3.578-18.652 0-10.477 4.088-17.631 4.089-7.155 10.988-11.498 6.899-4.344 15.842-6.133 8.943-2.044 18.653-2.044 12.264 0 21.719 2.044v-3.833q0-8.943-5.622-14.82-5.621-6.132-19.42-6.132-8.942 0-17.374 1.277-8.177 1.278-13.287 3.067l-4.344-25.297q5.877-2.044 16.609-3.577 10.731-1.788 22.23-1.788zm57.693 63.113q0-13.032 4.088-24.53 4.088-11.499 12.52-19.93 8.432-8.688 21.208-13.543 13.032-5.11 30.918-5.11 10.732 0 19.42 1.533 8.687 1.533 17.63 5.11l-6.899 25.296q-5.11-1.788-11.498-3.066-6.133-1.533-15.842-1.533-11.243 0-18.909 2.81-7.41 2.556-12.009 7.41-4.6 4.6-6.643 11.243-2.045 6.644-2.045 14.31 0 16.608 9.2 26.062 9.453 9.455 31.939 9.455 7.41 0 15.33-1.023 8.177-1.022 14.821-3.321l4.6 25.807q-6.644 2.555-16.098 4.088-9.455 1.789-22.23 1.789-18.398 0-31.685-4.855-13.031-4.855-21.463-13.287t-12.52-19.93q-3.833-11.499-3.833-24.785z" font-weight="700" font-size="255.716" font-family="Ubuntu Mono" letter-spacing="-20"/><path style="line-height:100%;-inkscape-font-specification:'Ubuntu Mono Bold'" d="M854.062 225.168q0-15.843 4.855-27.852 4.855-12.01 12.776-19.93 7.921-8.177 18.142-12.265 10.22-4.088 20.952-4.088 26.574 0 40.372 15.842 13.798 15.586 13.798 45.737 0 3.067-.255 6.388 0 3.322-.256 5.366h-77.933q0 11.754 9.71 18.653 9.71 6.644 25.04 6.644 9.455 0 17.887-2.045 8.688-2.044 14.564-4.088l4.344 26.83q-8.176 2.81-17.375 4.599-9.199 2.044-20.697 2.044-15.331 0-27.596-3.833-12.01-4.088-20.697-11.754-8.432-7.92-13.031-19.419-4.6-11.498-4.6-26.83zm80.489-12.52q0-4.856-1.278-9.2-1.278-4.599-4.088-8.176t-7.155-5.621q-4.344-2.3-10.731-2.3-6.133 0-10.732 2.044-4.344 2.044-7.41 5.621-2.811 3.578-4.6 8.177-1.533 4.6-2.044 9.454h48.038z" font-weight="700" font-size="255.716" font-family="Ubuntu Mono" letter-spacing="-20"/><path style="line-height:100%;-inkscape-font-specification:'Ubuntu Mono'" d="M220.843 88.278q0-3.237-1.518-4.996-1.52-1.798-3.957-1.798-1.36 0-2.159.12-.759.12-1.199.28v11.71q.56.52 1.639.96 1.08.44 2.238.44 1.32 0 2.239-.52.959-.52 1.558-1.4.6-.919.88-2.118.28-1.239.28-2.678zm3.398 0q0 2.119-.56 3.917-.52 1.759-1.559 3.038-.999 1.279-2.478 1.998-1.478.72-3.357.72-1.479 0-2.598-.36-1.12-.36-1.679-.8v7.315h-3.317V79.525q1.079-.32 2.758-.64 1.718-.32 3.917-.32 1.998 0 3.637.68t2.798 1.959q1.159 1.239 1.798 3.037.64 1.799.64 4.037zm8.373 9.233V79.965q4.077-1.4 8.234-1.4 1.279 0 2.438.12 1.16.08 2.558.4l-.6 2.918q-1.278-.36-2.278-.44-.959-.12-2.118-.12-2.438 0-4.956.68v15.388h-3.278zm28.558-18.985q3.757 0 5.796 2.358 2.038 2.318 2.038 7.075v1.159h-13.27q.2 2.877 1.879 4.396 1.719 1.48 4.796 1.48 1.759 0 2.998-.28 1.239-.28 1.878-.6l.44 2.798q-.6.32-2.158.679-1.559.36-3.517.36-2.399 0-4.237-.72-1.799-.76-2.998-2.038-1.199-1.28-1.798-3.038-.6-1.798-.6-3.877 0-2.478.76-4.316.759-1.839 1.998-3.038 1.239-1.2 2.798-1.799 1.558-.6 3.197-.6zm4.477 7.914q0-2.358-1.24-3.717-1.238-1.4-3.277-1.4-1.159 0-2.118.44-.92.44-1.599 1.16-.68.719-1.08 1.638-.399.92-.519 1.879h9.833zm21.683 6.435q0-1-.84-1.639-.799-.64-2.038-1.12-1.199-.479-2.638-.918-1.439-.48-2.678-1.16-1.199-.679-2.038-1.678-.8-1-.8-2.598 0-2.239 1.8-3.717 1.838-1.52 5.715-1.52 1.518 0 3.117.24 1.639.2 2.798.56l-.6 2.958q-.32-.16-.879-.32-.56-.2-1.279-.32-.72-.16-1.559-.24-.799-.08-1.558-.08-4.317 0-4.317 2.359 0 .84.8 1.439.839.56 2.078 1.039 1.239.48 2.678 1 1.439.479 2.678 1.198 1.239.72 2.038 1.759.84 1 .84 2.558 0 2.518-1.96 3.917-1.958 1.359-6.194 1.359-1.919 0-3.518-.32-1.598-.32-3.037-.96l.64-2.997q1.398.64 2.917 1.08 1.559.399 3.317.399 4.517 0 4.517-2.278zm18.805-14.349q3.757 0 5.796 2.358 2.038 2.318 2.038 7.075v1.159h-13.27q.2 2.877 1.88 4.396 1.718 1.48 4.795 1.48 1.759 0 2.998-.28 1.24-.28 1.879-.6l.44 2.798q-.6.32-2.16.679-1.558.36-3.516.36-2.398 0-4.237-.72-1.799-.76-2.998-2.038-1.199-1.28-1.798-3.038-.6-1.798-.6-3.877 0-2.478.76-4.316.759-1.839 1.998-3.038 1.239-1.2 2.798-1.799 1.559-.6 3.197-.6zm4.477 7.914q0-2.358-1.24-3.717-1.238-1.4-3.277-1.4-1.159 0-2.118.44-.92.44-1.599 1.16-.68.719-1.079 1.638-.4.92-.52 1.879h9.833zm10.492-6.955q1.798-.44 3.557-.68 1.799-.24 3.357-.24 3.717 0 5.596 1.92 1.919 1.918 1.919 6.155v10.87h-3.278V87.24q0-1.799-.32-2.918-.32-1.119-.919-1.718-.56-.64-1.399-.88-.8-.24-1.759-.24-.799 0-1.718.12-.88.08-1.719.24v15.668h-3.317V79.485zm29.357-.52h7.834v2.758h-7.834v8.634q0 1.399.2 2.278.2.88.64 1.439.479.52 1.198.72.72.2 1.759.2 1.439 0 2.318-.24.88-.24 1.679-.64l.48 2.798q-.56.24-1.8.64-1.198.399-2.997.399-2.078 0-3.397-.48-1.32-.48-2.078-1.439-.72-.959-1-2.358-.28-1.439-.28-3.317v-8.634h-3.916v-2.758h3.916V73.77l3.278-.56v5.755zm26.799 13.91q0-1-.84-1.639-.799-.64-2.038-1.12-1.199-.479-2.638-.918-1.438-.48-2.677-1.16-1.2-.679-2.039-1.678-.8-1-.8-2.598 0-2.239 1.8-3.717 1.838-1.52 5.715-1.52 1.519 0 3.117.24 1.64.2 2.798.56l-.6 2.958q-.319-.16-.879-.32-.56-.2-1.279-.32-.719-.16-1.558-.24-.8-.08-1.56-.08-4.316 0-4.316 2.359 0 .84.8 1.439.839.56 2.078 1.039 1.239.48 2.678 1 1.439.479 2.678 1.198 1.239.72 2.038 1.759.84 1 .84 2.558 0 2.518-1.959 3.917-1.958 1.359-6.195 1.359-1.919 0-3.517-.32-1.6-.32-3.038-.96l.64-2.997q1.398.64 2.917 1.08 1.559.399 3.318.399 4.516 0 4.516-2.278z" font-weight="400" font-family="Ubuntu Mono" letter-spacing="2.5"/></g></svg>