<svg xmlns="http://www.w3.org/2000/svg" width="1280" height="720" viewBox="0 0 1280 720.00001"><g font-weight="400" font-size="40" font-family="sans-serif" letter-spacing="0" word-spacing="0"><text y="960.976" x="108.95" style="line-height:125%" transform="translate(70.978 -1676.621) scale(2.1031)"><tspan style="-inkscape-font-specification:'NanumBarunGothic Bold'" y="960.976" x="108.95" font-weight="700" font-family="NanumBarunGothic" fill="#fff">이</tspan></text><text y="961.176" x="142.649" style="line-height:125%" transform="translate(70.978 -1676.621) scale(2.1031)"><tspan style="-inkscape-font-specification:'NanumBarunGothic Bold'" y="961.176" x="142.649" font-weight="700" font-family="NanumBarunGothic" fill="#fff">일</tspan></text><text y="960.976" x="179.307" style="line-height:125%" transform="translate(70.978 -1676.621) scale(2.1031)"><tspan style="-inkscape-font-specification:'NanumBarunGothic Bold'" y="960.976" x="179.307" font-weight="700" font-family="NanumBarunGothic" fill="#fff">재</tspan></text><text y="996.369" x="117.291" style="line-height:125%" transform="translate(70.978 -1676.621) scale(2.1031)"><tspan y="996.369" x="117.291" font-size="20" fill="#fff">✕</tspan></text><text y="1002.799" x="142.689" style="line-height:125%" transform="translate(70.978 -1676.621) scale(2.1031)"><tspan style="-inkscape-font-specification:'NanumBarunGothic Bold'" y="1002.799" x="142.689" font-weight="700" font-family="NanumBarunGothic" fill="#fff">唐</tspan></text><text y="1002.319" x="177.347" style="line-height:125%" transform="translate(70.978 -1676.621) scale(2.1031)"><tspan style="-inkscape-font-specification:'NanumBarunGothic Bold'" y="1002.319" x="177.347" font-weight="700" font-family="NanumBarunGothic" fill="#fff">榕</tspan></text></g><path d="M620.93 339.397v43.132q-3.327-4.144-7.47-9.046-4.145-4.903-8.406-9.981-4.202-5.078-8.17-9.922-3.97-4.903-7.005-8.93l-1.109-1.518.175 1.868v35.662h-2.45V337.47q3.384 4.26 7.412 9.163 4.085 4.903 8.288 9.922 4.202 5.02 8.17 9.864 4.028 4.845 7.238 8.93l1.11 1.518-.176-1.868v-35.603h2.393zm36.138 41.731q-2.976 0-5.545-.933-2.568-.934-4.435-2.744-1.868-1.809-2.977-4.435-1.05-2.685-1.05-6.07v-27.55h2.45v27.374q0 2.802.876 5.078.876 2.218 2.393 3.794 1.518 1.576 3.619 2.393 2.16.817 4.67.817 2.45 0 4.552-.817 2.16-.817 3.677-2.393 1.576-1.576 2.451-3.794.876-2.276.876-5.078v-27.373h2.451v27.549q0 3.385-1.109 6.07-1.05 2.626-2.977 4.435-1.867 1.81-4.435 2.744-2.51.933-5.487.933zm36.088-.466v-41.265h2.452v38.93h22.88v2.335h-25.332zm42.217 0v-41.265h2.451v38.93h22.88v2.335h-25.331zm62.411-39.222l-.876 1.926q-1.809-.759-4.377-1.343-2.51-.642-4.961-.642-2.218 0-4.027.642-1.81.584-3.094 1.635-1.226.992-1.926 2.393-.642 1.342-.642 2.918 0 1.868.934 3.152t2.451 2.218q1.576.933 3.502 1.692 1.985.7 4.027 1.46 2.102.758 4.028 1.75 1.984.934 3.502 2.335 1.576 1.342 2.51 3.268.933 1.868.933 4.611 0 2.685-.992 4.845-.934 2.16-2.743 3.677-1.81 1.517-4.32 2.334-2.509.817-5.602.817-2.452 0-4.495-.466-1.984-.467-3.56-1.11-1.576-.7-2.743-1.342-1.109-.7-1.751-1.05l1.167-2.16q.934.642 2.218 1.342 1.343.642 2.802 1.226 1.517.525 3.152.876 1.634.35 3.268.35 1.868 0 3.852-.525 1.985-.584 3.619-1.693 1.634-1.167 2.685-2.918 1.05-1.81 1.05-4.261 0-2.335-.934-3.969-.933-1.634-2.51-2.743-1.517-1.167-3.501-1.985-1.926-.875-4.028-1.634-2.042-.759-4.027-1.576-1.926-.817-3.502-1.926-1.517-1.109-2.451-2.626-.934-1.518-.934-3.736 0-2.043.817-3.852.876-1.868 2.393-3.21 1.576-1.4 3.736-2.16 2.16-.817 4.786-.817 1.342 0 2.801.234 1.518.175 2.977.525 1.459.292 2.685.7 1.284.41 2.1.818zm23.561 19.202h6.42q3.094 0 5.137-.992 2.042-.992 3.21-2.452 1.225-1.517 1.692-3.21.467-1.75.467-3.151 0-1.927-.759-3.56-.7-1.693-2.1-2.92-1.343-1.283-3.27-1.984-1.925-.7-4.318-.7h-6.479v18.969zm-2.451 20.02v-41.265h9.163q2.16 0 4.378.642 2.276.642 4.085 2.043 1.868 1.342 3.035 3.56 1.168 2.16 1.168 5.253 0 2.276-.76 4.436-.7 2.16-2.275 3.91-1.576 1.693-4.086 2.743-2.451.993-5.895.993h-6.362v17.685h-2.451zm64.913 0q-1.517-3.678-3.268-7.938-1.693-4.261-3.444-8.813h-16.692q-1.751 4.552-3.444 8.813-1.693 4.26-3.21 7.938h-2.452q1.226-2.86 2.627-6.362 1.46-3.502 2.977-7.354 1.575-3.853 3.151-7.821 1.576-4.028 3.094-7.88 1.576-3.852 2.976-7.354 1.46-3.56 2.685-6.42 1.168 2.86 2.568 6.42 1.46 3.502 2.977 7.354 1.576 3.852 3.152 7.88 1.576 3.968 3.093 7.82 1.576 3.853 2.977 7.355 1.459 3.502 2.685 6.362h-2.452zM868.224 344.3q-1.635 3.852-3.386 8.346-1.75 4.436-3.618 9.163h15.058q-1.81-4.727-3.619-9.163-1.75-4.494-3.326-8.346l-.526-1.693q-.117.467-.292.934t-.291.759zm63.199 33.735q-2.043 1.284-4.962 2.218-2.86.875-6.478.875-4.728 0-8.58-1.634-3.852-1.692-6.595-4.552-2.685-2.86-4.203-6.654-1.459-3.794-1.459-7.996 0-4.553 1.634-8.405 1.693-3.91 4.553-6.77 2.918-2.919 6.712-4.553 3.852-1.634 8.23-1.634 3.151 0 6.011.817 2.86.759 4.903 2.101-.35.525-.525.876-.175.292-.642 1.05-2.043-1.284-4.611-1.926-2.51-.642-5.02-.642-3.91 0-7.354 1.518-3.443 1.459-6.011 4.085-2.51 2.568-4.028 6.012-1.459 3.444-1.459 7.354 0 3.677 1.284 7.062 1.343 3.327 3.736 5.895 2.451 2.51 5.836 4.028 3.444 1.517 7.588 1.517 3.21 0 5.895-.817 2.685-.876 4.436-1.984l1.109 2.16zm18.338 2.627v-41.265h25.272v2.218h-22.82v17.16h20.486v2.217h-20.487v17.393h23.639v2.277h-26.09z" style="line-height:100%;-inkscape-font-specification:'Josefin Sans Light'" font-weight="300" font-size="90" font-family="Josefin Sans" letter-spacing="15" word-spacing="0" fill="#fff"/><path d="M552.788 425.314V294.686z" fill="#fff" fill-rule="evenodd" stroke="#fff" stroke-width="6.485"/></svg>