<svg xmlns="http://www.w3.org/2000/svg" width="320mm" height="160mm" viewBox="0 0 1133.8583 566.92913"><g font-weight="400" font-size="40" font-family="sans-serif" letter-spacing="0" word-spacing="0"><text style="line-height:125%" x="108.95" y="960.976" transform="translate(-310.5 -2856.998) scale(3.24298)"><tspan x="108.95" y="960.976" style="-inkscape-font-specification:'NanumBarunGothic Bold'" font-weight="700" font-family="NanumBarunGothic" fill="#fff">이</tspan></text><text style="line-height:125%" x="142.649" y="961.176" transform="translate(-310.5 -2856.998) scale(3.24298)"><tspan x="142.649" y="961.176" style="-inkscape-font-specification:'NanumBarunGothic Bold'" font-weight="700" font-family="NanumBarunGothic" fill="#fff">일</tspan></text><text style="line-height:125%" x="179.307" y="960.976" transform="translate(-310.5 -2856.998) scale(3.24298)"><tspan x="179.307" y="960.976" style="-inkscape-font-specification:'NanumBarunGothic Bold'" font-weight="700" font-family="NanumBarunGothic" fill="#fff">재</tspan></text><text style="line-height:125%" x="117.291" y="996.369" transform="translate(-310.5 -2856.998) scale(3.24298)"><tspan x="117.291" y="996.369" font-size="20" fill="#fff">✕</tspan></text><text style="line-height:125%" x="142.689" y="1002.799" transform="translate(-310.5 -2856.998) scale(3.24298)"><tspan x="142.689" y="1002.799" style="-inkscape-font-specification:'NanumBarunGothic Bold'" font-weight="700" font-family="NanumBarunGothic" fill="#fff">唐</tspan></text><text style="line-height:125%" x="177.347" y="1002.319" transform="translate(-310.5 -2856.998) scale(3.24298)"><tspan x="177.347" y="1002.319" style="-inkscape-font-specification:'NanumBarunGothic Bold'" font-weight="700" font-family="NanumBarunGothic" fill="#fff">榕</tspan></text></g><path style="line-height:100%;-inkscape-font-specification:'Josefin Sans Light'" d="M537.523 251.695v66.51q-5.13-6.39-11.52-13.95t-12.96-15.39q-6.48-7.83-12.6-15.3-6.12-7.56-10.8-13.77l-1.71-2.34.27 2.88v54.99h-3.78v-66.6q5.22 6.57 11.43 14.13 6.3 7.56 12.78 15.3 6.48 7.74 12.6 15.21 6.21 7.47 11.16 13.77l1.71 2.34-.27-2.88v-54.9h3.69zm55.725 64.35q-4.59 0-8.55-1.44-3.96-1.44-6.84-4.23-2.88-2.79-4.59-6.84-1.62-4.14-1.62-9.36v-42.48h3.78v42.21q0 4.32 1.35 7.83 1.35 3.42 3.69 5.85 2.34 2.43 5.58 3.69 3.33 1.26 7.2 1.26 3.78 0 7.02-1.26 3.33-1.26 5.67-3.69 2.43-2.43 3.78-5.85 1.35-3.51 1.35-7.83v-42.21h3.78v42.48q0 5.22-1.71 9.36-1.62 4.05-4.59 6.84-2.88 2.79-6.84 4.23-3.87 1.44-8.46 1.44zm55.648-.72v-63.63h3.78v60.03h35.28v3.6h-39.06zm65.098 0v-63.63h3.78v60.03h35.28v3.6h-39.06zm96.237-60.48l-1.35 2.97q-2.79-1.17-6.75-2.07-3.87-.99-7.65-.99-3.42 0-6.21.99-2.79.9-4.77 2.52-1.89 1.53-2.97 3.69-.99 2.07-.99 4.5 0 2.88 1.44 4.86 1.44 1.98 3.78 3.42 2.43 1.44 5.4 2.61 3.06 1.08 6.21 2.25 3.24 1.17 6.21 2.7 3.06 1.44 5.4 3.6 2.43 2.07 3.87 5.04 1.44 2.88 1.44 7.11 0 4.14-1.53 7.47-1.44 3.33-4.23 5.67-2.79 2.34-6.66 3.6-3.87 1.26-8.64 1.26-3.78 0-6.93-.72-3.06-.72-5.49-1.71-2.43-1.08-4.23-2.07-1.71-1.08-2.7-1.62l1.8-3.33q1.44.99 3.42 2.07 2.07.99 4.32 1.89 2.34.81 4.86 1.35 2.52.54 5.04.54 2.88 0 5.94-.81 3.06-.9 5.58-2.61 2.52-1.8 4.14-4.5 1.62-2.79 1.62-6.57 0-3.6-1.44-6.12t-3.87-4.23q-2.34-1.8-5.4-3.06-2.97-1.35-6.21-2.52-3.15-1.17-6.21-2.43-2.97-1.26-5.4-2.97-2.34-1.71-3.78-4.05t-1.44-5.76q0-3.15 1.26-5.94 1.35-2.88 3.69-4.95 2.43-2.16 5.76-3.33 3.33-1.26 7.38-1.26 2.07 0 4.32.36 2.34.27 4.59.81 2.25.45 4.14 1.08 1.98.63 3.24 1.26zm36.332 29.61h9.9q4.77 0 7.92-1.53 3.15-1.53 4.95-3.78 1.89-2.34 2.61-4.95.72-2.7.72-4.86 0-2.97-1.17-5.49-1.08-2.61-3.24-4.5-2.07-1.98-5.04-3.06t-6.66-1.08h-9.99v29.25zm-3.78 30.87v-63.63h14.13q3.33 0 6.75.99 3.51.99 6.3 3.15 2.88 2.07 4.68 5.49 1.8 3.33 1.8 8.1 0 3.51-1.17 6.84-1.08 3.33-3.51 6.03-2.43 2.61-6.3 4.23-3.78 1.53-9.09 1.53h-9.81v27.27h-3.78zm100.096 0q-2.34-5.67-5.04-12.24-2.61-6.57-5.31-13.59h-25.74q-2.7 7.02-5.31 13.59-2.61 6.57-4.95 12.24h-3.78q1.89-4.41 4.05-9.81 2.25-5.4 4.59-11.34 2.43-5.94 4.86-12.06 2.43-6.21 4.77-12.15 2.43-5.94 4.59-11.34 2.25-5.49 4.14-9.9 1.8 4.41 3.96 9.9 2.25 5.4 4.59 11.34 2.43 5.94 4.86 12.15 2.43 6.12 4.77 12.06 2.43 5.94 4.59 11.34 2.25 5.4 4.14 9.81h-3.78zm-24.03-56.07q-2.52 5.94-5.22 12.87-2.7 6.84-5.58 14.13h23.22q-2.79-7.29-5.58-14.13-2.7-6.93-5.13-12.87l-.81-2.61q-.18.72-.45 1.44t-.45 1.17zm97.453 52.02q-3.15 1.98-7.65 3.42-4.41 1.35-9.99 1.35-7.29 0-13.23-2.52-5.94-2.61-10.17-7.02-4.14-4.41-6.48-10.26-2.25-5.85-2.25-12.33 0-7.02 2.52-12.96 2.61-6.03 7.02-10.44 4.5-4.5 10.35-7.02 5.94-2.52 12.69-2.52 4.86 0 9.27 1.26 4.41 1.17 7.56 3.24-.54.81-.81 1.35-.27.45-.99 1.62-3.15-1.98-7.11-2.97-3.87-.99-7.74-.99-6.03 0-11.34 2.34-5.31 2.25-9.27 6.3-3.87 3.96-6.21 9.27-2.25 5.31-2.25 11.34 0 5.67 1.98 10.89 2.07 5.13 5.76 9.09 3.78 3.87 9 6.21 5.31 2.34 11.7 2.34 4.95 0 9.09-1.26 4.14-1.35 6.84-3.06l1.71 3.33zm28.278 4.05v-63.63h38.97v3.42h-35.19v26.46h31.59v3.42h-31.59v26.82h36.45v3.51h-40.23z" font-weight="300" font-size="90" font-family="Josefin Sans" letter-spacing="15" word-spacing="0" fill="#fff"/><path d="M432.448 384.179V182.75z" fill="#fff" fill-rule="evenodd" stroke="#fff" stroke-width="10"/></svg>