<svg xmlns="http://www.w3.org/2000/svg" width="320mm" height="160mm" viewBox="0 0 1133.8583 566.92913"><path d="M128.956 157.47h16.085v120.25h-16.085V157.47zm-16.864 50.331q0 10.508-2.335 18.68-2.205 8.043-6.356 13.62-4.15 5.578-9.988 8.432-5.708 2.854-12.842 2.854-7.135 0-12.972-2.854-5.708-2.854-9.859-8.432-4.151-5.577-6.486-13.62-2.205-8.172-2.205-18.68 0-10.507 2.205-18.55 2.335-8.172 6.486-13.75 4.151-5.578 9.859-8.431 5.837-2.854 12.972-2.854 7.134 0 12.842 2.854 5.837 2.853 9.988 8.431 4.151 5.578 6.356 13.75 2.335 8.043 2.335 18.55zm-16.344 0q0-14.01-4.022-21.922-3.891-7.913-11.155-7.913-7.265 0-11.286 7.913-3.892 7.913-3.892 21.922 0 14.01 3.892 21.923 4.021 7.913 11.286 7.913 7.264 0 11.155-7.913 4.022-7.913 4.022-21.923zm142.492-49.682h16.085v60.19H238.24v-60.19zm18.42 118.952h-79.129v-33.337h60.839v-7.394h-60.84v-12.972h76.794v33.078h-61.097v7.524h63.432v13.101zm-97.16-88.727q0-5.968 2.206-11.156 2.335-5.19 6.486-8.951 4.28-3.762 9.988-5.837 5.837-2.206 12.842-2.206 6.746 0 12.453 2.206 5.838 2.075 9.989 5.837 4.15 3.762 6.486 8.95 2.464 5.19 2.464 11.157t-2.335 11.026q-2.335 5.059-6.486 8.82-4.15 3.633-9.988 5.838-5.708 2.075-12.583 2.075t-12.712-2.075q-5.838-2.205-9.989-5.837-4.15-3.762-6.486-8.821-2.334-5.06-2.334-11.026zm16.215 0q0 6.875 4.022 10.766 4.021 3.762 11.156 3.762 7.004 0 11.026-3.762 4.15-3.891 4.15-10.766 0-7.005-4.15-10.767-4.022-3.892-11.026-3.892-7.005 0-11.156 3.892-4.022 3.762-4.022 10.767zm130.04-7.394q-4.281.259-8.562.259h-18.809v-13.361h29.835q6.746 0 13.62-.26-.777 21.664-8.56 41.121 3.372 7.913 8.56 14.788 5.32 6.876 12.065 12.583v-77.312h15.307v43.196h10.118V157.47h15.566v120.25H359.33v-62.395h-10.12v59.411h-15.307v-30.613l-6.875 6.097q-5.708-4.151-11.156-11.156-5.448-7.005-9.6-15.567-4.54 8.173-10.377 15.567-5.837 7.394-13.231 14.14l-11.545-8.822q8.561-7.653 14.788-15.696 6.356-8.172 10.507-16.215 4.151-8.172 6.356-16.085 2.335-8.043 2.984-15.437z" style="-inkscape-font-specification:'NanumBarunGothic Bold'" font-weight="700" font-family="NanumBarunGothic" fill="#fff" font-size="129.719" letter-spacing="0" word-spacing="0"/><path d="M101.51 350.582l14.473 14.473-4.497 4.466-14.441-14.473-14.473 14.473-4.497-4.466 14.473-14.473-14.473-14.473 4.497-4.465 14.473 14.441 14.473-14.473 4.497 4.465-14.505 14.505z" font-size="64.86" fill="#fff" style="line-height:125%" font-weight="400" font-family="sans-serif" letter-spacing="0" word-spacing="0"/><path d="M262.498 348.361h-12.583v16.993h-27.5v4.8h-14.14v-4.8H182.72V354.07h25.555v-5.708h-28.668q0 8.691-.649 17.123-.518 8.302-2.335 16.215-1.556 7.264-4.28 13.75-2.595 6.486-6.875 11.934-1.687-1.816-4.93-5.059-3.243-3.113-6.875-5.967 3.762-4.8 5.967-9.988 2.335-5.319 3.632-11.026 1.946-8.562 2.206-17.383.259-8.95.259-17.252v-37.36h42.548q0-5.577-1.168-11.674h16.475q-.52 3.113-.908 5.967-.26 2.724-.26 5.708h36.581v11.804h-79.388v21.922h28.668v-5.318h-24.776v-11.286h24.646l-.519-4.15h15.437l-.649 4.15h27.5v16.604h12.584v11.286zm-9.73 60.579H238.63v-4.67h-42.677v5.189h-14.4V371.84h71.217v37.1zm-16.993-71.865v-5.318h-13.36v5.318h13.36zm0 16.994v-5.708h-13.36v5.708h13.36zm2.854 38.915v-10.247h-42.677v10.247h42.677zm111.101-88.079h23.22v22.571H359.2V316.58h-35.025v10.896h-13.62v-22.57h24.516q0-2.855-.519-6.227-.389-3.373-.908-6.875h17.123q-.648 3.632-.908 7.004-.13 3.243-.13 6.097zm-4.67 26.593l7.653-7.654q2.465 2.205 5.578 4.8 3.243 2.594 6.486 5.059 3.373 2.465 6.356 4.54 3.113 2.076 5.319 3.113-.649.649-1.687 2.076-1.037 1.427-2.205 2.983-1.167 1.427-2.205 2.854t-1.686 2.076q-2.206-1.427-5.19-3.762-2.983-2.335-6.226-5.06-3.113-2.723-6.356-5.577t-5.837-5.448zm-37.23 11.285q2.724-1.686 5.708-3.762 3.113-2.205 5.967-4.67 2.984-2.464 5.448-5.059 2.465-2.594 4.021-5.059.39.26 1.817 1.427 1.426 1.038 3.113 2.335 1.686 1.297 2.983 2.465 1.298 1.038 1.557 1.167-1.816 2.335-4.54 5.19-2.724 2.853-5.967 5.836-3.243 2.854-6.616 5.578-3.373 2.595-6.486 4.54-1.038-2.205-2.983-5.188-1.946-2.984-4.022-4.8zm45.272 38.786h-23.09v11.934h23.09V381.57zm-50.071-12.453q4.929-2.335 9.988-5.967 5.06-3.632 9.729-8.042 4.8-4.41 8.95-9.34 4.152-5.06 7.265-10.248 1.167.649 2.983 1.686 1.816.908 3.503 1.946 1.686.908 2.854 1.557 1.297.648 1.297.778-.26.649-.39 1.167-.13.52-.648 1.168 2.205 2.724 5.708 5.837 3.502 3.114 7.783 6.227 4.28 3.113 8.95 5.967 4.8 2.724 9.47 4.8-.908 1.037-2.076 2.594-1.167 1.427-2.464 3.113l-2.335 3.113q-1.168 1.557-1.946 2.725-.13 0-.778-.39-.52-.519-1.297-1.037l-1.557-1.038q-.778-.519-1.168-.908v32.819h-13.75v-2.595h-23.09v4.281h-13.88V376.51l-4.28 2.595q-.39-.52-1.557-1.817-1.038-1.297-2.465-2.724-1.297-1.556-2.594-2.983t-2.205-2.465zm22.7.779h33.727q-2.075-1.557-4.54-3.503-2.335-1.946-4.8-4.021-2.334-2.205-4.54-4.41-2.205-2.206-3.761-4.152-1.946 2.335-4.151 4.67-2.206 2.335-4.41 4.54-2.206 2.076-4.152 3.892-1.946 1.816-3.373 2.984zm-44.882-77.962H298.1q-.648 4.151-.908 8.173-.13 3.891-.13 7.653v7.653h8.951v12.843h-8.95v13.36l5.059-2.464q2.594 4.93 5.059 9.859 2.594 4.8 4.54 10.118-.778.389-2.205 1.167-1.427.779-3.114 1.557l-3.372 1.557q-1.687.648-2.724 1.037-.26-1.556-.779-3.113t-1.038-2.854q-.518-1.427-1.037-2.464-.39-1.038-.39-1.427v54.741h-15.177v-40.732l-6.226 11.416q-.908-1.168-2.335-2.595-1.427-1.556-2.984-2.854-1.427-1.427-2.853-2.594-1.298-1.167-1.946-1.686 4.28-5.967 7.134-11.156 2.854-5.189 4.8-10.248 1.946-5.06 2.983-9.988 1.038-5.06 1.557-10.637h-12.064v-12.843h11.934V307.5q0-3.633-.259-7.654-.26-4.021-.778-7.913z" style="-inkscape-font-specification:'NanumBarunGothic Bold'" font-weight="700" font-family="NanumBarunGothic" fill="#fff" font-size="129.719" letter-spacing="0" word-spacing="0"/><path style="line-height:100%;-inkscape-font-specification:'Josefin Sans Light'" d="M537.523 251.695v66.51q-5.13-6.39-11.52-13.95t-12.96-15.39q-6.48-7.83-12.6-15.3-6.12-7.56-10.8-13.77l-1.71-2.34.27 2.88v54.99h-3.78v-66.6q5.22 6.57 11.43 14.13 6.3 7.56 12.78 15.3 6.48 7.74 12.6 15.21 6.21 7.47 11.16 13.77l1.71 2.34-.27-2.88v-54.9h3.69zm55.725 64.35q-4.59 0-8.55-1.44-3.96-1.44-6.84-4.23-2.88-2.79-4.59-6.84-1.62-4.14-1.62-9.36v-42.48h3.78v42.21q0 4.32 1.35 7.83 1.35 3.42 3.69 5.85 2.34 2.43 5.58 3.69 3.33 1.26 7.2 1.26 3.78 0 7.02-1.26 3.33-1.26 5.67-3.69 2.43-2.43 3.78-5.85 1.35-3.51 1.35-7.83v-42.21h3.78v42.48q0 5.22-1.71 9.36-1.62 4.05-4.59 6.84-2.88 2.79-6.84 4.23-3.87 1.44-8.46 1.44zm55.648-.72v-63.63h3.78v60.03h35.28v3.6h-39.06zm65.098 0v-63.63h3.78v60.03h35.28v3.6h-39.06zm96.237-60.48l-1.35 2.97q-2.79-1.17-6.75-2.07-3.87-.99-7.65-.99-3.42 0-6.21.99-2.79.9-4.77 2.52-1.89 1.53-2.97 3.69-.99 2.07-.99 4.5 0 2.88 1.44 4.86 1.44 1.98 3.78 3.42 2.43 1.44 5.4 2.61 3.06 1.08 6.21 2.25 3.24 1.17 6.21 2.7 3.06 1.44 5.4 3.6 2.43 2.07 3.87 5.04 1.44 2.88 1.44 7.11 0 4.14-1.53 7.47-1.44 3.33-4.23 5.67-2.79 2.34-6.66 3.6-3.87 1.26-8.64 1.26-3.78 0-6.93-.72-3.06-.72-5.49-1.71-2.43-1.08-4.23-2.07-1.71-1.08-2.7-1.62l1.8-3.33q1.44.99 3.42 2.07 2.07.99 4.32 1.89 2.34.81 4.86 1.35 2.52.54 5.04.54 2.88 0 5.94-.81 3.06-.9 5.58-2.61 2.52-1.8 4.14-4.5 1.62-2.79 1.62-6.57 0-3.6-1.44-6.12t-3.87-4.23q-2.34-1.8-5.4-3.06-2.97-1.35-6.21-2.52-3.15-1.17-6.21-2.43-2.97-1.26-5.4-2.97-2.34-1.71-3.78-4.05t-1.44-5.76q0-3.15 1.26-5.94 1.35-2.88 3.69-4.95 2.43-2.16 5.76-3.33 3.33-1.26 7.38-1.26 2.07 0 4.32.36 2.34.27 4.59.81 2.25.45 4.14 1.08 1.98.63 3.24 1.26zm36.332 29.61h9.9q4.77 0 7.92-1.53 3.15-1.53 4.95-3.78 1.89-2.34 2.61-4.95.72-2.7.72-4.86 0-2.97-1.17-5.49-1.08-2.61-3.24-4.5-2.07-1.98-5.04-3.06t-6.66-1.08h-9.99v29.25zm-3.78 30.87v-63.63h14.13q3.33 0 6.75.99 3.51.99 6.3 3.15 2.88 2.07 4.68 5.49 1.8 3.33 1.8 8.1 0 3.51-1.17 6.84-1.08 3.33-3.51 6.03-2.43 2.61-6.3 4.23-3.78 1.53-9.09 1.53h-9.81v27.27h-3.78zm100.096 0q-2.34-5.67-5.04-12.24-2.61-6.57-5.31-13.59h-25.74q-2.7 7.02-5.31 13.59-2.61 6.57-4.95 12.24h-3.78q1.89-4.41 4.05-9.81 2.25-5.4 4.59-11.34 2.43-5.94 4.86-12.06 2.43-6.21 4.77-12.15 2.43-5.94 4.59-11.34 2.25-5.49 4.14-9.9 1.8 4.41 3.96 9.9 2.25 5.4 4.59 11.34 2.43 5.94 4.86 12.15 2.43 6.12 4.77 12.06 2.43 5.94 4.59 11.34 2.25 5.4 4.14 9.81h-3.78zm-24.03-56.07q-2.52 5.94-5.22 12.87-2.7 6.84-5.58 14.13h23.22q-2.79-7.29-5.58-14.13-2.7-6.93-5.13-12.87l-.81-2.61q-.18.72-.45 1.44t-.45 1.17zm97.453 52.02q-3.15 1.98-7.65 3.42-4.41 1.35-9.99 1.35-7.29 0-13.23-2.52-5.94-2.61-10.17-7.02-4.14-4.41-6.48-10.26-2.25-5.85-2.25-12.33 0-7.02 2.52-12.96 2.61-6.03 7.02-10.44 4.5-4.5 10.35-7.02 5.94-2.52 12.69-2.52 4.86 0 9.27 1.26 4.41 1.17 7.56 3.24-.54.81-.81 1.35-.27.45-.99 1.62-3.15-1.98-7.11-2.97-3.87-.99-7.74-.99-6.03 0-11.34 2.34-5.31 2.25-9.27 6.3-3.87 3.96-6.21 9.27-2.25 5.31-2.25 11.34 0 5.67 1.98 10.89 2.07 5.13 5.76 9.09 3.78 3.87 9 6.21 5.31 2.34 11.7 2.34 4.95 0 9.09-1.26 4.14-1.35 6.84-3.06l1.71 3.33zm28.278 4.05v-63.63h38.97v3.42h-35.19v26.46h31.59v3.42h-31.59v26.82h36.45v3.51h-40.23z" font-weight="300" font-size="90" font-family="Josefin Sans" letter-spacing="15" word-spacing="0" fill="#fff"/><path d="M432.448 384.179V182.75z" fill="#fff" fill-rule="evenodd" stroke="#fff" stroke-width="10"/></svg>