<?xml version="1.0" encoding="UTF-8" standalone="no"?>
<!-- Created with Inkscape (http://www.inkscape.org/) -->

<svg
   xmlns:dc="http://purl.org/dc/elements/1.1/"
   xmlns:cc="http://creativecommons.org/ns#"
   xmlns:rdf="http://www.w3.org/1999/02/22-rdf-syntax-ns#"
   xmlns:svg="http://www.w3.org/2000/svg"
   xmlns="http://www.w3.org/2000/svg"
   xmlns:sodipodi="http://sodipodi.sourceforge.net/DTD/sodipodi-0.dtd"
   xmlns:inkscape="http://www.inkscape.org/namespaces/inkscape"
   width="120"
   height="80"
   viewBox="0 0 120 80"
   id="svg3336"
   version="1.1"
   inkscape:version="0.91 r13725"
   sodipodi:docname="header.svg">
  <defs
     id="defs3338" />
  <sodipodi:namedview
     id="base"
     pagecolor="#000000"
     bordercolor="#666666"
     borderopacity="1.0"
     inkscape:pageopacity="1"
     inkscape:pageshadow="2"
     inkscape:zoom="2.8"
     inkscape:cx="167.24546"
     inkscape:cy="92.996805"
     inkscape:document-units="px"
     inkscape:current-layer="layer1"
     showgrid="false"
     units="px"
     inkscape:window-width="1920"
     inkscape:window-height="1027"
     inkscape:window-x="0"
     inkscape:window-y="25"
     inkscape:window-maximized="1" />
  <metadata
     id="metadata3341">
    <rdf:RDF>
      <cc:Work
         rdf:about="">
        <dc:format>image/svg+xml</dc:format>
        <dc:type
           rdf:resource="http://purl.org/dc/dcmitype/StillImage" />
        <dc:title></dc:title>
      </cc:Work>
    </rdf:RDF>
  </metadata>
  <g
     inkscape:label="Layer 1"
     inkscape:groupmode="layer"
     id="layer1"
     transform="translate(0,-972.36213)">
    <g
       id="g3480"
       transform="translate(-100,39.999997)">
      <g
         transform="translate(-1.9686816,3.9743126)"
         style="font-style:normal;font-weight:normal;font-size:40px;line-height:125%;font-family:sans-serif;letter-spacing:0px;word-spacing:0px;fill:#000000;fill-opacity:1;stroke:none;stroke-width:1px;stroke-linecap:butt;stroke-linejoin:miter;stroke-opacity:1"
         id="text3344">
        <path
           d="m 135.50997,929.53644 4.96,0 0,37.08 -4.96,0 0,-37.08 z m -5.2,15.52 q 0,3.24 -0.72,5.76 -0.68,2.48 -1.96,4.2 -1.28,1.72 -3.08,2.6 -1.76,0.88 -3.96,0.88 -2.2,0 -4,-0.88 -1.76,-0.88 -3.04,-2.6 -1.28,-1.72 -2,-4.2 -0.68,-2.52 -0.68,-5.76 0,-3.24 0.68,-5.72 0.72,-2.52 2,-4.24 1.28,-1.72 3.04,-2.6 1.8,-0.88 4,-0.88 2.2,0 3.96,0.88 1.8,0.88 3.08,2.6 1.28,1.72 1.96,4.24 0.72,2.48 0.72,5.72 z m -5.04,0 q 0,-4.32 -1.24,-6.76 -1.2,-2.44 -3.44,-2.44 -2.24,0 -3.48,2.44 -1.2,2.44 -1.2,6.76 0,4.32 1.2,6.76 1.24,2.44 3.48,2.44 2.24,0 3.44,-2.44 1.24,-2.44 1.24,-6.76 z"
           style="font-style:normal;font-variant:normal;font-weight:bold;font-stretch:normal;font-size:40px;font-family:NanumBarunGothic;-inkscape-font-specification:'NanumBarunGothic Bold';fill:#ffffff"
           id="path3432"
           inkscape:connector-curvature="0" />
      </g>
      <g
         transform="translate(-1.9686816,3.9743126)"
         style="font-style:normal;font-weight:normal;font-size:40px;line-height:125%;font-family:sans-serif;letter-spacing:0px;word-spacing:0px;fill:#000000;fill-opacity:1;stroke:none;stroke-width:1px;stroke-linecap:butt;stroke-linejoin:miter;stroke-opacity:1"
         id="text3352">
        <path
           d="m 169.20868,929.73645 4.96,0 0,18.56 -4.96,0 0,-18.56 z m 5.68,36.68 -24.4,0 0,-10.28 18.76,0 0,-2.28 -18.76,0 0,-4 23.68,0 0,10.2 -18.84,0 0,2.32 19.56,0 0,4.04 z m -29.96,-27.36 q 0,-1.84 0.68,-3.44 0.72,-1.6 2,-2.76 1.32,-1.16 3.08,-1.8 1.8,-0.68 3.96,-0.68 2.08,0 3.84,0.68 1.8,0.64 3.08,1.8 1.28,1.16 2,2.76 0.76,1.6 0.76,3.44 0,1.84 -0.72,3.4 -0.72,1.56 -2,2.72 -1.28,1.12 -3.08,1.8 -1.76,0.64 -3.88,0.64 -2.12,0 -3.92,-0.64 -1.8,-0.68 -3.08,-1.8 -1.28,-1.16 -2,-2.72 -0.72,-1.56 -0.72,-3.4 z m 5,0 q 0,2.12 1.24,3.32 1.24,1.16 3.44,1.16 2.16,0 3.4,-1.16 1.28,-1.2 1.28,-3.32 0,-2.16 -1.28,-3.32 -1.24,-1.2 -3.4,-1.2 -2.16,0 -3.44,1.2 -1.24,1.16 -1.24,3.32 z"
           style="font-style:normal;font-variant:normal;font-weight:bold;font-stretch:normal;font-family:NanumBarunGothic;-inkscape-font-specification:'NanumBarunGothic Bold';fill:#ffffff"
           id="path3435"
           inkscape:connector-curvature="0" />
      </g>
      <g
         transform="translate(-1.9686816,3.9743126)"
         style="font-style:normal;font-weight:normal;font-size:40px;line-height:125%;font-family:sans-serif;letter-spacing:0px;word-spacing:0px;fill:#000000;fill-opacity:1;stroke:none;stroke-width:1px;stroke-linecap:butt;stroke-linejoin:miter;stroke-opacity:1"
         id="text3356">
        <path
           d="m 190.0274,936.77644 q -1.32,0.08 -2.64,0.08 -1.28,0 -2.56,0 l -3.24,0 0,-4.12 5.08,0 q 2.08,0 4.12,0 2.08,0 4.2,-0.08 -0.24,6.68 -2.64,12.68 1.04,2.44 2.64,4.56 1.64,2.12 3.72,3.88 l 0,-23.84 4.72,0 0,13.32 3.12,0 0,-13.72 4.8,0 0,37.08 -4.8,0 0,-19.24 -3.12,0 0,18.32 -4.72,0 0,-9.44 -2.12,1.88 q -1.76,-1.28 -3.44,-3.44 -1.68,-2.16 -2.96,-4.8 -1.4,2.52 -3.2,4.8 -1.8,2.28 -4.08,4.36 l -3.56,-2.72 q 2.64,-2.36 4.56,-4.84 1.96,-2.52 3.24,-5 1.28,-2.52 1.96,-4.96 0.72,-2.48 0.92,-4.76 z"
           style="font-style:normal;font-variant:normal;font-weight:bold;font-stretch:normal;font-family:NanumBarunGothic;-inkscape-font-specification:'NanumBarunGothic Bold';fill:#ffffff"
           id="path3438"
           inkscape:connector-curvature="0" />
      </g>
      <g
         transform="translate(-1.9686816,3.9743126)"
         style="font-style:normal;font-weight:normal;font-size:40px;line-height:125%;font-family:sans-serif;letter-spacing:0px;word-spacing:0px;fill:#000000;fill-opacity:1;stroke:none;stroke-width:1px;stroke-linecap:butt;stroke-linejoin:miter;stroke-opacity:1"
         id="text3360">
        <path
           d="m 127.04692,989.08411 4.46289,4.46289 -1.38672,1.37695 -4.45312,-4.46289 -4.46289,4.46289 -1.38672,-1.37695 4.46289,-4.46289 -4.46289,-4.46289 1.38672,-1.37696 4.46289,4.45313 4.46289,-4.46289 1.38672,1.37695 -4.47266,4.47266 z"
           style="font-size:20px;fill:#ffffff"
           id="path3441"
           inkscape:connector-curvature="0" />
      </g>
      <g
         transform="translate(-1.9686816,3.9743126)"
         style="font-style:normal;font-weight:normal;font-size:40px;line-height:125%;font-family:sans-serif;letter-spacing:0px;word-spacing:0px;fill:#000000;fill-opacity:1;stroke:none;stroke-width:1px;stroke-linecap:butt;stroke-linejoin:miter;stroke-opacity:1"
         id="text3364">
        <path
           d="m 176.68867,988.39919 -3.88,0 0,5.24 -8.48,0 0,1.48 -4.36,0 0,-1.48 -7.88,0 0,-3.48 7.88,0 0,-1.76 -8.84,0 q 0,2.68 -0.2,5.28 -0.16,2.56 -0.72,5 -0.48,2.24001 -1.32,4.24001 -0.8,2 -2.12,3.68 -0.52,-0.56 -1.52,-1.56 -1,-0.96 -2.12,-1.84 1.16,-1.48 1.84,-3.08 0.72,-1.64001 1.12,-3.40001 0.6,-2.64 0.68,-5.36 0.08,-2.76 0.08,-5.32 l 0,-11.52 13.12,0 q 0,-1.72 -0.36,-3.6 l 5.08,0 q -0.16,0.96 -0.28,1.84 -0.08,0.84 -0.08,1.76 l 11.28,0 0,3.64 -24.48,0 0,6.76 8.84,0 0,-1.64 -7.64,0 0,-3.48 7.6,0 -0.16,-1.28 4.76,0 -0.2,1.28 8.48,0 0,5.12 3.88,0 0,3.48 z m -3,18.68001 -4.36,0 0,-1.44 -13.16,0 0,1.6 -4.44,0 0,-11.60001 21.96,0 0,11.44001 z m -5.24,-22.16001 0,-1.64 -4.12,0 0,1.64 4.12,0 z m 0,5.24 0,-1.76 -4.12,0 0,1.76 4.12,0 z m 0.88,12.00001 0,-3.16001 -13.16,0 0,3.16001 13.16,0 z"
           style="font-style:normal;font-variant:normal;font-weight:bold;font-stretch:normal;font-family:NanumBarunGothic;-inkscape-font-specification:'NanumBarunGothic Bold';fill:#ffffff"
           id="path3444"
           inkscape:connector-curvature="0" />
      </g>
      <g
         transform="translate(-1.9686816,3.9743126)"
         style="font-style:normal;font-weight:normal;font-size:40px;line-height:125%;font-family:sans-serif;letter-spacing:0px;word-spacing:0px;fill:#000000;fill-opacity:1;stroke:none;stroke-width:1px;stroke-linecap:butt;stroke-linejoin:miter;stroke-opacity:1"
         id="text3368">
        <path
           d="m 203.5874,974.99921 7.16,0 0,6.96 -4.24,0 0,-3.36 -10.8,0 0,3.36 -4.2,0 0,-6.96 7.56,0 q 0,-0.88 -0.16,-1.92 -0.12,-1.04 -0.28,-2.12 l 5.28,0 q -0.2,1.12 -0.28,2.16 -0.04,1 -0.04,1.88 z m -1.44,8.2 2.36,-2.36 q 0.76,0.68 1.72,1.48 1,0.8 2,1.56 1.04,0.76 1.96,1.4 0.96,0.64 1.64,0.96 -0.2,0.2 -0.52,0.64 -0.32,0.44 -0.68,0.92 -0.36,0.44 -0.68,0.88 -0.32,0.44 -0.52,0.64 -0.68,-0.44 -1.6,-1.16 -0.92,-0.72 -1.92,-1.56 -0.96,-0.84 -1.96,-1.72 -1,-0.88 -1.8,-1.68 z m -11.48,3.48 q 0.84,-0.52 1.76,-1.16 0.96,-0.68 1.84,-1.44 0.92,-0.76 1.68,-1.56 0.76,-0.8 1.24,-1.56 0.12,0.08 0.56,0.44 0.44,0.32 0.96,0.72 0.52,0.4 0.92,0.76 0.4,0.32 0.48,0.36 -0.56,0.72 -1.4,1.6 -0.84,0.88 -1.84,1.8 -1,0.88 -2.04,1.72 -1.04,0.8 -2,1.4 -0.32,-0.68 -0.92,-1.6 -0.6,-0.92 -1.24,-1.48 z m 13.96,11.96 -7.12,0 0,3.67999 7.12,0 0,-3.67999 z m -15.44,-3.84 q 1.52,-0.72 3.08,-1.84 1.56,-1.12 3,-2.48 1.48,-1.36 2.76,-2.88 1.28,-1.56 2.24,-3.16 0.36,0.2 0.92,0.52 0.56,0.28 1.08,0.6 0.52,0.28 0.88,0.48 0.4,0.2 0.4,0.24 -0.08,0.2 -0.12,0.36 -0.04,0.16 -0.2,0.36 0.68,0.84 1.76,1.8 1.08,0.96 2.4,1.92 1.32,0.96 2.76,1.84 1.48,0.84 2.92,1.48 -0.28,0.32 -0.64,0.8 -0.36,0.44 -0.76,0.96 -0.36,0.48 -0.72,0.96 -0.36,0.48 -0.6,0.84 -0.04,0 -0.24,-0.12 -0.16,-0.16 -0.4,-0.32 -0.24,-0.16 -0.48,-0.32 -0.24,-0.16 -0.36,-0.28 l 0,10.11999 -4.24,0 0,-0.8 -7.12,0 0,1.32 -4.28,0 0,-10.11999 -1.32,0.8 q -0.12,-0.16 -0.48,-0.56 -0.32,-0.4 -0.76,-0.84 -0.4,-0.48 -0.8,-0.92 -0.4,-0.44 -0.68,-0.76 z m 7,0.24 10.4,0 q -0.64,-0.48 -1.4,-1.08 -0.72,-0.6 -1.48,-1.24 -0.72,-0.68 -1.4,-1.36 -0.68,-0.68 -1.16,-1.28 -0.6,0.72 -1.28,1.44 -0.68,0.72 -1.36,1.4 -0.68,0.64 -1.28,1.2 -0.6,0.56 -1.04,0.92 z m -13.84,-24.04 5.32,0 q -0.2,1.28 -0.28,2.52 -0.04,1.2 -0.04,2.36 l 0,2.36 2.76,0 0,3.96 -2.76,0 0,4.12 1.56,-0.76 q 0.8,1.52 1.56,3.04 0.8,1.48 1.4,3.12 -0.24,0.12 -0.68,0.36 -0.44,0.24 -0.96,0.48 -0.52,0.24 -1.04,0.48 -0.52,0.2 -0.84,0.32 -0.08,-0.48 -0.24,-0.96 -0.16,-0.48 -0.32,-0.88 -0.16,-0.44 -0.32,-0.76 -0.12,-0.32 -0.12,-0.44 l 0,16.87999 -4.68,0 0,-12.55999 -1.92,3.52 q -0.28,-0.36 -0.72,-0.8 -0.44,-0.48 -0.92,-0.88 -0.44,-0.44 -0.88,-0.8 -0.4,-0.36 -0.6,-0.52 1.32,-1.84 2.2,-3.44 0.88,-1.6 1.48,-3.16 0.6,-1.56 0.92,-3.08 0.32,-1.56 0.48,-3.28 l -3.72,0 0,-3.96 3.68,0 0,-2.44 q 0,-1.12 -0.08,-2.36 -0.08,-1.24 -0.24,-2.44 z"
           style="font-style:normal;font-variant:normal;font-weight:bold;font-stretch:normal;font-family:NanumBarunGothic;-inkscape-font-specification:'NanumBarunGothic Bold';fill:#ffffff"
           id="path3447"
           inkscape:connector-curvature="0" />
      </g>
    </g>
  </g>
</svg>
