<?xml version="1.0" encoding="UTF-8" standalone="no"?>
<!-- Created with Inkscape (http://www.inkscape.org/) -->

<svg
   xmlns:dc="http://purl.org/dc/elements/1.1/"
   xmlns:cc="http://creativecommons.org/ns#"
   xmlns:rdf="http://www.w3.org/1999/02/22-rdf-syntax-ns#"
   xmlns:svg="http://www.w3.org/2000/svg"
   xmlns="http://www.w3.org/2000/svg"
   xmlns:sodipodi="http://sodipodi.sourceforge.net/DTD/sodipodi-0.dtd"
   xmlns:inkscape="http://www.inkscape.org/namespaces/inkscape"
   width="965"
   height="742"
   viewBox="0 0 965.00007 741.99997"
   id="svg2"
   version="1.1"
   inkscape:version="0.91 r13725"
   sodipodi:docname="logo.svg">
  <defs
     id="defs4" />
  <sodipodi:namedview
     id="base"
     pagecolor="#000000"
     bordercolor="#666666"
     borderopacity="1.0"
     inkscape:pageopacity="1"
     inkscape:pageshadow="2"
     inkscape:zoom="1.4"
     inkscape:cx="-70.027762"
     inkscape:cy="551.26002"
     inkscape:document-units="px"
     inkscape:current-layer="layer1"
     showgrid="false"
     inkscape:window-width="1920"
     inkscape:window-height="1027"
     inkscape:window-x="0"
     inkscape:window-y="25"
     inkscape:window-maximized="1"
     units="px" />
  <metadata
     id="metadata7">
    <rdf:RDF>
      <cc:Work
         rdf:about="">
        <dc:format>image/svg+xml</dc:format>
        <dc:type
           rdf:resource="http://purl.org/dc/dcmitype/StillImage" />
        <dc:title />
      </cc:Work>
    </rdf:RDF>
  </metadata>
  <g
     inkscape:label="Layer 1"
     inkscape:groupmode="layer"
     id="layer1"
     transform="translate(0,-310.3623)">
    <text
       xml:space="preserve"
       style="font-style:normal;font-weight:normal;font-size:39.9690094px;line-height:125%;font-family:sans-serif;letter-spacing:0px;word-spacing:0px;fill:#000000;fill-opacity:1;stroke:none;stroke-width:1px;stroke-linecap:butt;stroke-linejoin:miter;stroke-opacity:1"
       x="272.31427"
       y="359.23297"
       id="text3538"
       sodipodi:linespacing="125%"><tspan
         sodipodi:role="line"
         id="tspan3540"
         x="272.31427"
         y="359.23297" /></text>
    <g
       id="g3372">
      <g
         transform="matrix(1.990933,0,0,1.990933,-220.69185,-1540.2825)"
         style="font-style:normal;font-weight:normal;font-size:40px;line-height:125%;font-family:sans-serif;letter-spacing:0px;word-spacing:0px;fill:#000000;fill-opacity:1;stroke:none;stroke-width:1px;stroke-linecap:butt;stroke-linejoin:miter;stroke-opacity:1"
         id="text3344">
        <path
           d="m 135.50997,929.53644 4.96,0 0,37.08 -4.96,0 0,-37.08 z m -5.2,15.52 q 0,3.24 -0.72,5.76 -0.68,2.48 -1.96,4.2 -1.28,1.72 -3.08,2.6 -1.76,0.88 -3.96,0.88 -2.2,0 -4,-0.88 -1.76,-0.88 -3.04,-2.6 -1.28,-1.72 -2,-4.2 -0.68,-2.52 -0.68,-5.76 0,-3.24 0.68,-5.72 0.72,-2.52 2,-4.24 1.28,-1.72 3.04,-2.6 1.8,-0.88 4,-0.88 2.2,0 3.96,0.88 1.8,0.88 3.08,2.6 1.28,1.72 1.96,4.24 0.72,2.48 0.72,5.72 z m -5.04,0 q 0,-4.32 -1.24,-6.76 -1.2,-2.44 -3.44,-2.44 -2.24,0 -3.48,2.44 -1.2,2.44 -1.2,6.76 0,4.32 1.2,6.76 1.24,2.44 3.48,2.44 2.24,0 3.44,-2.44 1.24,-2.44 1.24,-6.76 z"
           style="font-style:normal;font-variant:normal;font-weight:bold;font-stretch:normal;font-size:40px;font-family:NanumBarunGothic;-inkscape-font-specification:'NanumBarunGothic Bold';fill:#ffffff"
           id="path3756"
           inkscape:connector-curvature="0" />
      </g>
      <g
         transform="matrix(1.990933,0,0,1.990933,-220.69185,-1540.2825)"
         style="font-style:normal;font-weight:normal;font-size:40px;line-height:125%;font-family:sans-serif;letter-spacing:0px;word-spacing:0px;fill:#000000;fill-opacity:1;stroke:none;stroke-width:1px;stroke-linecap:butt;stroke-linejoin:miter;stroke-opacity:1"
         id="text3352">
        <path
           d="m 169.20868,929.73645 4.96,0 0,18.56 -4.96,0 0,-18.56 z m 5.68,36.68 -24.4,0 0,-10.28 18.76,0 0,-2.28 -18.76,0 0,-4 23.68,0 0,10.2 -18.84,0 0,2.32 19.56,0 0,4.04 z m -29.96,-27.36 q 0,-1.84 0.68,-3.44 0.72,-1.6 2,-2.76 1.32,-1.16 3.08,-1.8 1.8,-0.68 3.96,-0.68 2.08,0 3.84,0.68 1.8,0.64 3.08,1.8 1.28,1.16 2,2.76 0.76,1.6 0.76,3.44 0,1.84 -0.72,3.4 -0.72,1.56 -2,2.72 -1.28,1.12 -3.08,1.8 -1.76,0.64 -3.88,0.64 -2.12,0 -3.92,-0.64 -1.8,-0.68 -3.08,-1.8 -1.28,-1.16 -2,-2.72 -0.72,-1.56 -0.72,-3.4 z m 5,0 q 0,2.12 1.24,3.32 1.24,1.16 3.44,1.16 2.16,0 3.4,-1.16 1.28,-1.2 1.28,-3.32 0,-2.16 -1.28,-3.32 -1.24,-1.2 -3.4,-1.2 -2.16,0 -3.44,1.2 -1.24,1.16 -1.24,3.32 z"
           style="font-style:normal;font-variant:normal;font-weight:bold;font-stretch:normal;font-family:NanumBarunGothic;-inkscape-font-specification:'NanumBarunGothic Bold';fill:#ffffff"
           id="path3759"
           inkscape:connector-curvature="0" />
      </g>
      <g
         transform="matrix(1.990933,0,0,1.990933,-220.69185,-1540.2825)"
         style="font-style:normal;font-weight:normal;font-size:40px;line-height:125%;font-family:sans-serif;letter-spacing:0px;word-spacing:0px;fill:#000000;fill-opacity:1;stroke:none;stroke-width:1px;stroke-linecap:butt;stroke-linejoin:miter;stroke-opacity:1"
         id="text3356">
        <path
           d="m 190.0274,936.77644 q -1.32,0.08 -2.64,0.08 -1.28,0 -2.56,0 l -3.24,0 0,-4.12 5.08,0 q 2.08,0 4.12,0 2.08,0 4.2,-0.08 -0.24,6.68 -2.64,12.68 1.04,2.44 2.64,4.56 1.64,2.12 3.72,3.88 l 0,-23.84 4.72,0 0,13.32 3.12,0 0,-13.72 4.8,0 0,37.08 -4.8,0 0,-19.24 -3.12,0 0,18.32 -4.72,0 0,-9.44 -2.12,1.88 q -1.76,-1.28 -3.44,-3.44 -1.68,-2.16 -2.96,-4.8 -1.4,2.52 -3.2,4.8 -1.8,2.28 -4.08,4.36 l -3.56,-2.72 q 2.64,-2.36 4.56,-4.84 1.96,-2.52 3.24,-5 1.28,-2.52 1.96,-4.96 0.72,-2.48 0.92,-4.76 z"
           style="font-style:normal;font-variant:normal;font-weight:bold;font-stretch:normal;font-family:NanumBarunGothic;-inkscape-font-specification:'NanumBarunGothic Bold';fill:#ffffff"
           id="path3762"
           inkscape:connector-curvature="0" />
      </g>
      <g
         transform="matrix(1.990933,0,0,1.990933,-220.69185,-1540.2825)"
         style="font-style:normal;font-weight:normal;font-size:40px;line-height:125%;font-family:sans-serif;letter-spacing:0px;word-spacing:0px;fill:#000000;fill-opacity:1;stroke:none;stroke-width:1px;stroke-linecap:butt;stroke-linejoin:miter;stroke-opacity:1"
         id="text3360">
        <path
           d="m 127.04692,989.08411 4.46289,4.46289 -1.38672,1.37695 -4.45312,-4.46289 -4.46289,4.46289 -1.38672,-1.37695 4.46289,-4.46289 -4.46289,-4.46289 1.38672,-1.37696 4.46289,4.45313 4.46289,-4.46289 1.38672,1.37695 -4.47266,4.47266 z"
           style="font-size:20px;fill:#ffffff"
           id="path3765"
           inkscape:connector-curvature="0" />
      </g>
      <g
         transform="matrix(1.990933,0,0,1.990933,-220.69185,-1540.2825)"
         style="font-style:normal;font-weight:normal;font-size:40px;line-height:125%;font-family:sans-serif;letter-spacing:0px;word-spacing:0px;fill:#000000;fill-opacity:1;stroke:none;stroke-width:1px;stroke-linecap:butt;stroke-linejoin:miter;stroke-opacity:1"
         id="text3364">
        <path
           d="m 176.68867,988.39919 -3.88,0 0,5.24 -8.48,0 0,1.48 -4.36,0 0,-1.48 -7.88,0 0,-3.48 7.88,0 0,-1.76 -8.84,0 q 0,2.68 -0.2,5.28 -0.16,2.56 -0.72,5 -0.48,2.24001 -1.32,4.24001 -0.8,2 -2.12,3.68 -0.52,-0.56 -1.52,-1.56 -1,-0.96 -2.12,-1.84 1.16,-1.48 1.84,-3.08 0.72,-1.64001 1.12,-3.40001 0.6,-2.64 0.68,-5.36 0.08,-2.76 0.08,-5.32 l 0,-11.52 13.12,0 q 0,-1.72 -0.36,-3.6 l 5.08,0 q -0.16,0.96 -0.28,1.84 -0.08,0.84 -0.08,1.76 l 11.28,0 0,3.64 -24.48,0 0,6.76 8.84,0 0,-1.64 -7.64,0 0,-3.48 7.6,0 -0.16,-1.28 4.76,0 -0.2,1.28 8.48,0 0,5.12 3.88,0 0,3.48 z m -3,18.68001 -4.36,0 0,-1.44 -13.16,0 0,1.6 -4.44,0 0,-11.60001 21.96,0 0,11.44001 z m -5.24,-22.16001 0,-1.64 -4.12,0 0,1.64 4.12,0 z m 0,5.24 0,-1.76 -4.12,0 0,1.76 4.12,0 z m 0.88,12.00001 0,-3.16001 -13.16,0 0,3.16001 13.16,0 z"
           style="font-style:normal;font-variant:normal;font-weight:bold;font-stretch:normal;font-family:NanumBarunGothic;-inkscape-font-specification:'NanumBarunGothic Bold';fill:#ffffff"
           id="path3768"
           inkscape:connector-curvature="0" />
      </g>
      <g
         transform="matrix(1.990933,0,0,1.990933,-220.69185,-1540.2825)"
         style="font-style:normal;font-weight:normal;font-size:40px;line-height:125%;font-family:sans-serif;letter-spacing:0px;word-spacing:0px;fill:#000000;fill-opacity:1;stroke:none;stroke-width:1px;stroke-linecap:butt;stroke-linejoin:miter;stroke-opacity:1"
         id="text3368">
        <path
           d="m 203.5874,974.99921 7.16,0 0,6.96 -4.24,0 0,-3.36 -10.8,0 0,3.36 -4.2,0 0,-6.96 7.56,0 q 0,-0.88 -0.16,-1.92 -0.12,-1.04 -0.28,-2.12 l 5.28,0 q -0.2,1.12 -0.28,2.16 -0.04,1 -0.04,1.88 z m -1.44,8.2 2.36,-2.36 q 0.76,0.68 1.72,1.48 1,0.8 2,1.56 1.04,0.76 1.96,1.4 0.96,0.64 1.64,0.96 -0.2,0.2 -0.52,0.64 -0.32,0.44 -0.68,0.92 -0.36,0.44 -0.68,0.88 -0.32,0.44 -0.52,0.64 -0.68,-0.44 -1.6,-1.16 -0.92,-0.72 -1.92,-1.56 -0.96,-0.84 -1.96,-1.72 -1,-0.88 -1.8,-1.68 z m -11.48,3.48 q 0.84,-0.52 1.76,-1.16 0.96,-0.68 1.84,-1.44 0.92,-0.76 1.68,-1.56 0.76,-0.8 1.24,-1.56 0.12,0.08 0.56,0.44 0.44,0.32 0.96,0.72 0.52,0.4 0.92,0.76 0.4,0.32 0.48,0.36 -0.56,0.72 -1.4,1.6 -0.84,0.88 -1.84,1.8 -1,0.88 -2.04,1.72 -1.04,0.8 -2,1.4 -0.32,-0.68 -0.92,-1.6 -0.6,-0.92 -1.24,-1.48 z m 13.96,11.96 -7.12,0 0,3.67999 7.12,0 0,-3.67999 z m -15.44,-3.84 q 1.52,-0.72 3.08,-1.84 1.56,-1.12 3,-2.48 1.48,-1.36 2.76,-2.88 1.28,-1.56 2.24,-3.16 0.36,0.2 0.92,0.52 0.56,0.28 1.08,0.6 0.52,0.28 0.88,0.48 0.4,0.2 0.4,0.24 -0.08,0.2 -0.12,0.36 -0.04,0.16 -0.2,0.36 0.68,0.84 1.76,1.8 1.08,0.96 2.4,1.92 1.32,0.96 2.76,1.84 1.48,0.84 2.92,1.48 -0.28,0.32 -0.64,0.8 -0.36,0.44 -0.76,0.96 -0.36,0.48 -0.72,0.96 -0.36,0.48 -0.6,0.84 -0.04,0 -0.24,-0.12 -0.16,-0.16 -0.4,-0.32 -0.24,-0.16 -0.48,-0.32 -0.24,-0.16 -0.36,-0.28 l 0,10.11999 -4.24,0 0,-0.8 -7.12,0 0,1.32 -4.28,0 0,-10.11999 -1.32,0.8 q -0.12,-0.16 -0.48,-0.56 -0.32,-0.4 -0.76,-0.84 -0.4,-0.48 -0.8,-0.92 -0.4,-0.44 -0.68,-0.76 z m 7,0.24 10.4,0 q -0.64,-0.48 -1.4,-1.08 -0.72,-0.6 -1.48,-1.24 -0.72,-0.68 -1.4,-1.36 -0.68,-0.68 -1.16,-1.28 -0.6,0.72 -1.28,1.44 -0.68,0.72 -1.36,1.4 -0.68,0.64 -1.28,1.2 -0.6,0.56 -1.04,0.92 z m -13.84,-24.04 5.32,0 q -0.2,1.28 -0.28,2.52 -0.04,1.2 -0.04,2.36 l 0,2.36 2.76,0 0,3.96 -2.76,0 0,4.12 1.56,-0.76 q 0.8,1.52 1.56,3.04 0.8,1.48 1.4,3.12 -0.24,0.12 -0.68,0.36 -0.44,0.24 -0.96,0.48 -0.52,0.24 -1.04,0.48 -0.52,0.2 -0.84,0.32 -0.08,-0.48 -0.24,-0.96 -0.16,-0.48 -0.32,-0.88 -0.16,-0.44 -0.32,-0.76 -0.12,-0.32 -0.12,-0.44 l 0,16.87999 -4.68,0 0,-12.55999 -1.92,3.52 q -0.28,-0.36 -0.72,-0.8 -0.44,-0.48 -0.92,-0.88 -0.44,-0.44 -0.88,-0.8 -0.4,-0.36 -0.6,-0.52 1.32,-1.84 2.2,-3.44 0.88,-1.6 1.48,-3.16 0.6,-1.56 0.92,-3.08 0.32,-1.56 0.48,-3.28 l -3.72,0 0,-3.96 3.68,0 0,-2.44 q 0,-1.12 -0.08,-2.36 -0.08,-1.24 -0.24,-2.44 z"
           style="font-style:normal;font-variant:normal;font-weight:bold;font-stretch:normal;font-family:NanumBarunGothic;-inkscape-font-specification:'NanumBarunGothic Bold';fill:#ffffff"
           id="path3771"
           inkscape:connector-curvature="0" />
      </g>
    </g>
    <path
       inkscape:connector-curvature="0"
       id="path3547"
       style="font-style:normal;font-variant:normal;font-weight:bold;font-stretch:normal;font-size:255.71618652px;line-height:100%;font-family:'Ubuntu Mono';-inkscape-font-specification:'Ubuntu Mono Bold';letter-spacing:-20px;word-spacing:0px;fill:#ffffff;fill-opacity:1;stroke:none;stroke-width:1px;stroke-linecap:butt;stroke-linejoin:miter;stroke-opacity:1"
       d="m 0.04281533,478.29383 q 8.43209587,-2.29965 20.69696267,-4.3438 12.520385,-2.04414 27.084915,-2.04414 14.309015,0 23.763185,4.08829 9.454159,3.83277 14.820038,11.24279 5.621407,7.1545 7.921074,17.37523 2.299657,9.9652 2.299657,22.23007 l 0,67.71229 -31.428726,0 0,-63.624 q 0,-16.86419 -3.832768,-24.27422 -3.832769,-7.41002 -15.586604,-7.41002 -3.577253,0 -7.154506,0.25551 -3.321735,0.25552 -7.154506,0.76656 l 0,94.28617 -31.42872167,0 0,-116.26073 z" />
    <path
       inkscape:connector-curvature="0"
       id="path3549"
       style="font-style:normal;font-variant:normal;font-weight:bold;font-stretch:normal;font-size:255.71618652px;line-height:100%;font-family:'Ubuntu Mono';-inkscape-font-specification:'Ubuntu Mono Bold';letter-spacing:-20px;word-spacing:0px;fill:#ffffff;fill-opacity:1;stroke:none;stroke-width:1px;stroke-linecap:butt;stroke-linejoin:miter;stroke-opacity:1"
       d="m 203.63661,590.46627 q -8.68761,2.29965 -21.208,4.59932 -12.26486,2.29966 -26.8294,2.29966 -14.82004,0 -24.27421,-4.08828 -9.45417,-4.08829 -15.07557,-11.49832 -5.36588,-7.66554 -7.41002,-17.88627 -2.04415,-10.22071 -2.04415,-22.48558 l 0,-66.94573 31.42872,0 0,62.85744 q 0,16.60867 3.83278,24.78525 4.08828,7.92106 15.5866,7.92106 7.15451,0 14.30901,-1.27759 l 0,-94.28616 31.68424,0 0,116.0052 z" />
    <path
       inkscape:connector-curvature="0"
       id="path3551"
       style="font-style:normal;font-variant:normal;font-weight:bold;font-stretch:normal;font-size:255.71618652px;line-height:100%;font-family:'Ubuntu Mono';-inkscape-font-specification:'Ubuntu Mono Bold';letter-spacing:-20px;word-spacing:0px;fill:#ffffff;fill-opacity:1;stroke:none;stroke-width:1px;stroke-linecap:butt;stroke-linejoin:miter;stroke-opacity:1"
       d="m 318.82116,589.44419 q -0.76655,0.51103 -3.57725,1.78863 -2.55518,1.27759 -6.89898,2.81069 -4.34382,1.27759 -10.73176,2.29967 -6.13243,1.02207 -14.0535,1.02207 -21.71904,0 -31.68423,-12.7759 -9.96521,-13.03142 -9.96521,-37.81667 l 0,-101.95171 -33.21736,0 0,-26.06284 64.64608,0 0,130.31421 q 0,12.26486 4.85484,16.60868 4.85484,4.3438 12.26486,4.3438 9.45417,0 15.84213,-2.55518 6.38795,-2.55518 8.43209,-3.32174 l 4.08829,25.29629 z" />
    <path
       inkscape:connector-curvature="0"
       id="path3553"
       style="font-style:normal;font-variant:normal;font-weight:bold;font-stretch:normal;font-size:255.71618652px;line-height:100%;font-family:'Ubuntu Mono';-inkscape-font-specification:'Ubuntu Mono Bold';letter-spacing:-20px;word-spacing:0px;fill:#ffffff;fill-opacity:1;stroke:none;stroke-width:1px;stroke-linecap:butt;stroke-linejoin:miter;stroke-opacity:1"
       d="m 426.5957,589.44419 q -0.76657,0.51103 -3.57725,1.78863 -2.55519,1.27759 -6.89899,2.81069 -4.34381,1.27759 -10.73176,2.29967 -6.13243,1.02207 -14.05349,1.02207 -21.71904,0 -31.68425,-12.7759 -9.9652,-13.03142 -9.9652,-37.81667 l 0,-101.95171 -33.21734,0 0,-26.06284 64.64606,0 0,130.31421 q 0,12.26486 4.85485,16.60868 4.85484,4.3438 12.26487,4.3438 9.45416,0 15.84211,-2.55518 6.38795,-2.55518 8.4321,-3.32174 l 4.08829,25.29629 z" />
    <path
       inkscape:connector-curvature="0"
       id="path3555"
       style="font-style:normal;font-variant:normal;font-weight:bold;font-stretch:normal;font-size:255.71618652px;line-height:100%;font-family:'Ubuntu Mono';-inkscape-font-specification:'Ubuntu Mono Bold';letter-spacing:-20px;word-spacing:0px;fill:#ffffff;fill-opacity:1;stroke:none;stroke-width:1px;stroke-linecap:butt;stroke-linejoin:miter;stroke-opacity:1"
       d="m 473.30141,570.79137 q 11.49832,0 17.63074,-1.53311 6.13244,-1.78862 6.13244,-6.89898 0,-3.32173 -2.04415,-5.6214 -1.78863,-2.29966 -5.36589,-3.83277 -3.32172,-1.78863 -7.92105,-3.32173 -4.3438,-1.53311 -9.19864,-3.06622 -6.899,-2.04415 -14.0535,-4.59933 -7.15451,-2.8107 -13.03143,-6.89899 -5.87691,-4.08828 -9.70968,-10.22071 -3.83278,-6.38796 -3.83278,-15.84213 0,-7.66554 2.8107,-14.30901 3.06622,-6.89899 9.19866,-12.00934 6.38794,-5.36588 16.09763,-8.17658 9.70969,-3.06623 23.25214,-3.06623 11.75383,0 21.71903,1.78864 10.22073,1.78862 17.63075,5.11035 l -4.85484,26.57388 q -4.3438,-1.27759 -13.54245,-4.08828 -9.19866,-3.06622 -20.69697,-3.06622 -12.00935,0 -16.35315,3.06622 -4.08829,2.81069 -4.08829,6.13242 0,2.81071 1.78862,5.11037 2.04414,2.04415 5.11037,3.83277 3.32173,1.78862 7.41002,3.57726 4.3438,1.5331 9.19865,3.06621 6.89899,2.29967 14.30901,5.11037 7.41002,2.81069 13.28694,7.1545 6.13244,4.08829 9.96521,10.73176 3.83276,6.38794 3.83276,15.84211 0,7.41003 -2.8107,14.0535 -2.8107,6.64347 -9.45416,11.49831 -6.38795,4.85485 -16.86418,7.66555 -10.47626,2.81069 -25.80734,2.81069 -15.5866,0 -26.57388,-3.57725 -10.98728,-3.57725 -17.63074,-6.38795 l 4.85484,-26.31836 q 8.94313,3.57725 18.90834,6.64347 10.22071,3.06621 20.69696,3.06621 z" />
    <path
       inkscape:connector-curvature="0"
       id="path3557"
       style="font-style:normal;font-variant:normal;font-weight:bold;font-stretch:normal;font-size:255.71618652px;line-height:100%;font-family:'Ubuntu Mono';-inkscape-font-specification:'Ubuntu Mono Bold';letter-spacing:-20px;word-spacing:0px;fill:#ffffff;fill-opacity:1;stroke:none;stroke-width:1px;stroke-linecap:butt;stroke-linejoin:miter;stroke-opacity:1"
       d="m 610.71603,535.52988 c 0,-10.73175 -2.12933,-19.50454 -6.38795,-26.31836 -4.25864,-6.98415 -10.73176,-10.47624 -19.41938,-10.47624 -2.38484,0 -4.94002,0.17035 -7.66553,0.51104 -2.72554,0.17034 -5.0252,0.34068 -6.899,0.51103 l 0,65.92367 c 2.04415,1.36276 4.76967,2.47 8.17658,3.32173 3.40691,0.85173 6.81381,1.27759 10.22072,1.27759 7.4952,0 13.03142,-2.98105 16.60867,-8.94314 3.57726,-6.13243 5.36588,-14.73487 5.36588,-25.80732 z m 31.93976,-1.02207 c 0,9.19865 -1.02207,17.71592 -3.06622,25.5518 -2.04415,7.66555 -5.0252,14.30902 -8.94313,19.93041 -3.91794,5.45105 -8.85796,9.70969 -14.82006,12.7759 -5.96208,3.06622 -12.86107,4.59933 -20.69695,4.59933 -8.00623,0 -16.268,-1.95897 -24.78526,-5.87691 l 0,460.87396 -31.42871,0 0,-574.06847 c 5.79173,-1.87379 12.86106,-3.4069 21.20798,-4.59932 8.51727,-1.19241 16.8642,-1.78862 25.04078,-1.78862 18.56764,0 32.79148,5.6214 42.67151,16.86419 9.88003,11.24279 14.82006,26.4887 14.82006,45.73773 z"
       sodipodi:nodetypes="scscccsscssccsscccccsss" />
    <path
       inkscape:connector-curvature="0"
       id="path3559"
       style="font-style:normal;font-variant:normal;font-weight:bold;font-stretch:normal;font-size:255.71618652px;line-height:100%;font-family:'Ubuntu Mono';-inkscape-font-specification:'Ubuntu Mono Bold';letter-spacing:-20px;word-spacing:0px;fill:#ffffff;fill-opacity:1;stroke:none;stroke-width:1px;stroke-linecap:butt;stroke-linejoin:miter;stroke-opacity:1"
       d="m 694.72737,572.06896 q 5.11036,0 9.96521,0 4.85483,-0.25551 8.43209,-0.76655 l 0,-27.59595 q -3.06622,-0.51104 -7.41003,-0.76655 -4.3438,-0.51104 -7.92105,-0.51104 -4.85484,0 -9.45417,0.76655 -4.59932,0.51104 -8.17658,2.04415 -3.32173,1.53311 -5.36588,4.34381 -2.04415,2.8107 -2.04415,7.41002 0,8.17657 6.13245,11.75383 6.13242,3.32173 15.84211,3.32173 z m -2.81069,-100.67412 q 14.82004,0 24.52972,3.57726 9.96521,3.32173 15.84214,9.70969 5.87691,6.13243 8.43208,15.33108 2.55519,8.94313 2.55519,20.18593 l 0,71.54506 q -6.89899,1.53311 -20.44145,3.57724 -13.54245,2.04415 -30.40665,2.04415 -11.49832,0 -20.95249,-2.04415 -9.19865,-2.04413 -15.84211,-6.64347 -6.64347,-4.85483 -10.22073,-12.26486 -3.57725,-7.66554 -3.57725,-18.65281 0,-10.47625 4.08828,-17.63075 4.08829,-7.1545 10.98728,-11.49832 6.899,-4.3438 15.84212,-6.13243 8.94314,-2.04415 18.65283,-2.04415 12.26486,0 21.71903,2.04415 l 0,-3.83277 q 0,-8.94313 -5.62139,-14.82005 -5.62141,-6.13243 -19.41939,-6.13243 -8.94312,0 -17.37522,1.27759 -8.17657,1.27759 -13.28694,3.06622 l -4.3438,-25.2963 q 5.87691,-2.04414 16.60867,-3.57724 10.73176,-1.78864 22.23007,-1.78864 z" />
    <path
       inkscape:connector-curvature="0"
       id="path3561"
       style="font-style:normal;font-variant:normal;font-weight:bold;font-stretch:normal;font-size:255.71618652px;line-height:100%;font-family:'Ubuntu Mono';-inkscape-font-specification:'Ubuntu Mono Bold';letter-spacing:-20px;word-spacing:0px;fill:#ffffff;fill-opacity:1;stroke:none;stroke-width:1px;stroke-linecap:butt;stroke-linejoin:miter;stroke-opacity:1"
       d="m 749.60966,534.50781 q 0,-13.03142 4.08829,-24.52973 4.08829,-11.49832 12.52038,-19.93041 8.43209,-8.68761 21.208,-13.54246 13.03142,-5.11037 30.91768,-5.11037 10.73176,0 19.41937,1.53311 8.68762,1.53312 17.63075,5.11037 l -6.89899,25.29629 q -5.11035,-1.78863 -11.49831,-3.06622 -6.13243,-1.53311 -15.84212,-1.53311 -11.24279,0 -18.90834,2.8107 -7.41002,2.55518 -12.00934,7.41002 -4.59933,4.59933 -6.64347,11.2428 -2.04415,6.64347 -2.04415,14.30901 0,16.60867 9.19865,26.06284 9.45417,9.45417 31.93976,9.45417 7.41003,0 15.33109,-1.02207 8.17658,-1.02208 14.82005,-3.32173 l 4.59932,25.80732 q -6.64347,2.55517 -16.09764,4.08829 -9.45417,1.78862 -22.23007,1.78862 -18.3973,0 -31.68424,-4.85484 -13.03142,-4.85484 -21.46352,-13.28693 -8.43209,-8.43211 -12.52038,-19.93042 -3.83277,-11.49832 -3.83277,-24.78525 z" />
    <path
       inkscape:connector-curvature="0"
       id="path3563"
       style="font-style:normal;font-variant:normal;font-weight:bold;font-stretch:normal;font-size:255.71618652px;line-height:100%;font-family:'Ubuntu Mono';-inkscape-font-specification:'Ubuntu Mono Bold';letter-spacing:-20px;word-spacing:0px;fill:#ffffff;fill-opacity:1;stroke:none;stroke-width:1px;stroke-linecap:butt;stroke-linejoin:miter;stroke-opacity:1"
       d="m 854.06246,535.52988 q 0,-15.84212 4.85484,-27.85147 4.85485,-12.00935 12.7759,-19.93041 7.92106,-8.17658 18.14179,-12.26487 10.22071,-4.08829 20.95246,-4.08829 26.57389,0 40.37189,15.84213 13.7979,15.5866 13.7979,45.73774 0,3.06621 -0.2555,6.38794 0,3.32174 -0.2555,5.36588 l -77.93299,0 q 0,11.75383 9.70968,18.65282 9.70969,6.64347 25.04077,6.64347 9.45417,0 17.88626,-2.04415 8.68762,-2.04414 14.5645,-4.08829 l 4.34383,26.8294 q -8.17656,2.8107 -17.37522,4.59932 -9.19864,2.04415 -20.69696,2.04415 -15.33108,0 -27.59595,-3.83277 -12.00935,-4.08829 -20.69696,-11.75383 -8.43211,-7.92105 -13.03143,-19.41937 -4.59932,-11.49831 -4.59932,-26.8294 z m 80.48819,-12.52039 q 0,-4.85483 -1.2776,-9.19864 -1.27758,-4.59933 -4.08828,-8.17658 -2.8107,-3.57725 -7.1545,-5.6214 -4.34382,-2.29966 -10.73176,-2.29966 -6.13245,0 -10.73176,2.04414 -4.34381,2.04415 -7.41003,5.6214 -2.8107,3.57725 -4.59932,8.17658 -1.53311,4.59933 -2.04414,9.45416 l 48.03739,0 z" />
    <g
       id="g3386"
       transform="translate(0,-11.307492)">
      <path
         inkscape:connector-curvature="0"
         d="m 220.84346,398.64056 q 0,-3.23749 -1.51882,-4.99613 -1.51882,-1.79861 -3.95693,-1.79861 -1.35895,0 -2.15833,0.11991 -0.75941,0.11991 -1.19907,0.27978 l 0,11.71092 q 0.55957,0.5196 1.63873,0.95926 1.07916,0.43966 2.23827,0.43966 1.31897,0 2.23826,-0.5196 0.95926,-0.51959 1.55879,-1.39891 0.59954,-0.91929 0.87932,-2.11836 0.27978,-1.23904 0.27978,-2.67792 z m 3.39737,0 q 0,2.11835 -0.55957,3.91696 -0.51959,1.75864 -1.55879,3.03764 -0.99922,1.27901 -2.47808,1.99845 -1.47885,0.71945 -3.35739,0.71945 -1.47886,0 -2.59799,-0.35972 -1.11913,-0.35973 -1.6787,-0.79939 l 0,7.31433 -3.31743,0 0,-24.58094 q 1.07917,-0.31975 2.75787,-0.6395 1.71866,-0.31975 3.91696,-0.31975 1.99845,0 3.63718,0.67947 1.63873,0.67947 2.79783,1.95848 1.1591,1.23904 1.7986,3.03765 0.63951,1.7986 0.63951,4.03687 z"
         style="font-style:normal;font-variant:normal;font-weight:normal;font-stretch:normal;font-size:medium;line-height:100%;font-family:'Ubuntu Mono';-inkscape-font-specification:'Ubuntu Mono';letter-spacing:2.50000024px;word-spacing:0px;fill:#ffffff;fill-opacity:1;stroke:none;stroke-width:1px;stroke-linecap:butt;stroke-linejoin:miter;stroke-opacity:1"
         id="path3648" />
      <path
         inkscape:connector-curvature="0"
         d="m 232.61434,407.8734 0,-17.5464 q 4.07683,-1.39891 8.23361,-1.39891 1.27901,0 2.43811,0.1199 1.1591,0.0799 2.55802,0.39969 l -0.59954,2.91774 q -1.27901,-0.35972 -2.27823,-0.43966 -0.95926,-0.1199 -2.11836,-0.1199 -2.43811,0 -4.95616,0.67947 l 0,15.38807 -3.27745,0 z"
         style="font-style:normal;font-variant:normal;font-weight:normal;font-stretch:normal;font-size:medium;line-height:100%;font-family:'Ubuntu Mono';-inkscape-font-specification:'Ubuntu Mono';letter-spacing:2.50000024px;word-spacing:0px;fill:#ffffff;fill-opacity:1;stroke:none;stroke-width:1px;stroke-linecap:butt;stroke-linejoin:miter;stroke-opacity:1"
         id="path3650" />
      <path
         inkscape:connector-curvature="0"
         d="m 261.17219,388.88812 q 3.75709,0 5.79551,2.35817 2.03842,2.3182 2.03842,7.07451 l 0,1.15911 -13.26971,0 q 0.19984,2.87776 1.87854,4.39659 1.71867,1.47885 4.79628,1.47885 1.75864,0 2.99768,-0.27978 1.23904,-0.27979 1.87854,-0.59954 l 0.43966,2.79783 q -0.59954,0.31975 -2.15833,0.67948 -1.55879,0.35972 -3.51727,0.35972 -2.39814,0 -4.23671,-0.71945 -1.79861,-0.75941 -2.99768,-2.03842 -1.19907,-1.279 -1.79861,-3.03764 -0.59953,-1.79861 -0.59953,-3.87699 0,-2.47808 0.75941,-4.31666 0.75941,-1.83857 1.99845,-3.03764 1.23904,-1.19907 2.79783,-1.79861 1.55879,-0.59953 3.19752,-0.59953 z m 4.47653,7.91386 q 0,-2.35817 -1.23904,-3.71712 -1.23904,-1.39891 -3.27746,-1.39891 -1.1591,0 -2.11835,0.43966 -0.91929,0.43966 -1.59876,1.1591 -0.67948,0.71944 -1.07917,1.63873 -0.39969,0.91929 -0.51959,1.87854 l 9.83237,0 z"
         style="font-style:normal;font-variant:normal;font-weight:normal;font-stretch:normal;font-size:medium;line-height:100%;font-family:'Ubuntu Mono';-inkscape-font-specification:'Ubuntu Mono';letter-spacing:2.50000024px;word-spacing:0px;fill:#ffffff;fill-opacity:1;stroke:none;stroke-width:1px;stroke-linecap:butt;stroke-linejoin:miter;stroke-opacity:1"
         id="path3652" />
      <path
         inkscape:connector-curvature="0"
         d="m 287.33191,403.23699 q 0,-0.99922 -0.83935,-1.63873 -0.79938,-0.6395 -2.03842,-1.11913 -1.19907,-0.47963 -2.63795,-0.91929 -1.43889,-0.47962 -2.67793,-1.1591 -1.19907,-0.67947 -2.03842,-1.6787 -0.79938,-0.99922 -0.79938,-2.59798 0,-2.23827 1.79861,-3.71712 1.83857,-1.51882 5.71557,-1.51882 1.51882,0 3.11758,0.23981 1.63873,0.19985 2.79783,0.55957 l -0.59954,2.9577 q -0.31975,-0.15987 -0.87931,-0.31975 -0.55957,-0.19984 -1.27901,-0.31975 -0.71944,-0.15988 -1.55879,-0.23981 -0.79938,-0.0799 -1.55879,-0.0799 -4.31666,0 -4.31666,2.35817 0,0.83935 0.79938,1.43888 0.83935,0.55957 2.07839,1.0392 1.23904,0.47963 2.67792,0.99922 1.43889,0.47963 2.67793,1.19907 1.23904,0.71945 2.03842,1.75864 0.83935,0.99923 0.83935,2.55802 0,2.51804 -1.95848,3.91696 -1.95849,1.35895 -6.1952,1.35895 -1.91851,0 -3.51727,-0.31976 -1.59876,-0.31975 -3.03765,-0.95925 l 0.63951,-2.99768 q 1.39891,0.63951 2.91773,1.07917 1.55879,0.39969 3.31743,0.39969 4.5165,0 4.5165,-2.27824 z"
         style="font-style:normal;font-variant:normal;font-weight:normal;font-stretch:normal;font-size:medium;line-height:100%;font-family:'Ubuntu Mono';-inkscape-font-specification:'Ubuntu Mono';letter-spacing:2.50000024px;word-spacing:0px;fill:#ffffff;fill-opacity:1;stroke:none;stroke-width:1px;stroke-linecap:butt;stroke-linejoin:miter;stroke-opacity:1"
         id="path3654" />
      <path
         inkscape:connector-curvature="0"
         d="m 306.13733,388.88812 q 3.75708,0 5.7955,2.35817 2.03842,2.3182 2.03842,7.07451 l 0,1.15911 -13.26971,0 q 0.19985,2.87776 1.87855,4.39659 1.71866,1.47885 4.79628,1.47885 1.75863,0 2.99767,-0.27978 1.23904,-0.27979 1.87855,-0.59954 l 0.43965,2.79783 q -0.59953,0.31975 -2.15832,0.67948 -1.55879,0.35972 -3.51727,0.35972 -2.39814,0 -4.23672,-0.71945 -1.7986,-0.75941 -2.99767,-2.03842 -1.19908,-1.279 -1.79861,-3.03764 -0.59954,-1.79861 -0.59954,-3.87699 0,-2.47808 0.75942,-4.31666 0.75941,-1.83857 1.99845,-3.03764 1.23904,-1.19907 2.79783,-1.79861 1.55879,-0.59953 3.19752,-0.59953 z m 4.47653,7.91386 q 0,-2.35817 -1.23904,-3.71712 -1.23904,-1.39891 -3.27746,-1.39891 -1.1591,0 -2.11836,0.43966 -0.91929,0.43966 -1.59876,1.1591 -0.67947,0.71944 -1.07916,1.63873 -0.39969,0.91929 -0.5196,1.87854 l 9.83238,0 z"
         style="font-style:normal;font-variant:normal;font-weight:normal;font-stretch:normal;font-size:medium;line-height:100%;font-family:'Ubuntu Mono';-inkscape-font-specification:'Ubuntu Mono';letter-spacing:2.50000024px;word-spacing:0px;fill:#ffffff;fill-opacity:1;stroke:none;stroke-width:1px;stroke-linecap:butt;stroke-linejoin:miter;stroke-opacity:1"
         id="path3656" />
      <path
         inkscape:connector-curvature="0"
         d="m 321.10572,389.84737 q 1.79861,-0.43966 3.55724,-0.67947 1.79861,-0.23981 3.3574,-0.23981 3.71712,0 5.59566,1.91851 1.91851,1.91851 1.91851,6.15523 l 0,10.87157 -3.27746,0 0,-10.27204 q 0,-1.7986 -0.31975,-2.91774 -0.31975,-1.11913 -0.91928,-1.71866 -0.55957,-0.63951 -1.39892,-0.87932 -0.79938,-0.23982 -1.75864,-0.23982 -0.79938,0 -1.71866,0.11991 -0.87932,0.0799 -1.71867,0.23982 l 0,15.66785 -3.31743,0 0,-18.02603 z"
         style="font-style:normal;font-variant:normal;font-weight:normal;font-stretch:normal;font-size:medium;line-height:100%;font-family:'Ubuntu Mono';-inkscape-font-specification:'Ubuntu Mono';letter-spacing:2.50000024px;word-spacing:0px;fill:#ffffff;fill-opacity:1;stroke:none;stroke-width:1px;stroke-linecap:butt;stroke-linejoin:miter;stroke-opacity:1"
         id="path3658" />
      <path
         inkscape:connector-curvature="0"
         d="m 350.46296,389.32778 7.83392,0 0,2.75786 -7.83392,0 0,8.6333 q 0,1.39892 0.19984,2.27824 0.19985,0.87932 0.63951,1.43888 0.47963,0.5196 1.19907,0.71944 0.71944,0.19985 1.75863,0.19985 1.43889,0 2.31821,-0.23981 0.87931,-0.23982 1.6787,-0.63951 l 0.47962,2.79783 q -0.55956,0.23982 -1.7986,0.63951 -1.19907,0.39969 -2.99768,0.39969 -2.07839,0 -3.39736,-0.47963 -1.31898,-0.47963 -2.07839,-1.43889 -0.71944,-0.95925 -0.99923,-2.35817 -0.27978,-1.43888 -0.27978,-3.31743 l 0,-8.6333 -3.91696,0 0,-2.75786 3.91696,0 0,-5.19597 3.27746,-0.55957 0,5.75554 z"
         style="font-style:normal;font-variant:normal;font-weight:normal;font-stretch:normal;font-size:medium;line-height:100%;font-family:'Ubuntu Mono';-inkscape-font-specification:'Ubuntu Mono';letter-spacing:2.50000024px;word-spacing:0px;fill:#ffffff;fill-opacity:1;stroke:none;stroke-width:1px;stroke-linecap:butt;stroke-linejoin:miter;stroke-opacity:1"
         id="path3660" />
      <path
         inkscape:connector-curvature="0"
         d="m 377.26218,403.23699 q 0,-0.99922 -0.83935,-1.63873 -0.79938,-0.6395 -2.03842,-1.11913 -1.19907,-0.47963 -2.63795,-0.91929 -1.43889,-0.47962 -2.67793,-1.1591 -1.19907,-0.67947 -2.03842,-1.6787 -0.79938,-0.99922 -0.79938,-2.59798 0,-2.23827 1.79861,-3.71712 1.83857,-1.51882 5.71557,-1.51882 1.51882,0 3.11758,0.23981 1.63873,0.19985 2.79783,0.55957 l -0.59954,2.9577 q -0.31975,-0.15987 -0.87931,-0.31975 -0.55957,-0.19984 -1.27901,-0.31975 -0.71944,-0.15988 -1.55879,-0.23981 -0.79938,-0.0799 -1.5588,-0.0799 -4.31665,0 -4.31665,2.35817 0,0.83935 0.79938,1.43888 0.83935,0.55957 2.07839,1.0392 1.23904,0.47963 2.67792,0.99922 1.43889,0.47963 2.67793,1.19907 1.23904,0.71945 2.03842,1.75864 0.83935,0.99923 0.83935,2.55802 0,2.51804 -1.95849,3.91696 -1.95848,1.35895 -6.19519,1.35895 -1.91851,0 -3.51727,-0.31976 -1.59876,-0.31975 -3.03765,-0.95925 l 0.63951,-2.99768 q 1.39891,0.63951 2.91773,1.07917 1.55879,0.39969 3.31743,0.39969 4.5165,0 4.5165,-2.27824 z"
         style="font-style:normal;font-variant:normal;font-weight:normal;font-stretch:normal;font-size:medium;line-height:100%;font-family:'Ubuntu Mono';-inkscape-font-specification:'Ubuntu Mono';letter-spacing:2.50000024px;word-spacing:0px;fill:#ffffff;fill-opacity:1;stroke:none;stroke-width:1px;stroke-linecap:butt;stroke-linejoin:miter;stroke-opacity:1"
         id="path3662" />
    </g>
  </g>
</svg>
