<?xml version="1.0" encoding="UTF-8" standalone="no"?>
<!-- Created with Inkscape (http://www.inkscape.org/) -->

<svg
   xmlns:dc="http://purl.org/dc/elements/1.1/"
   xmlns:cc="http://creativecommons.org/ns#"
   xmlns:rdf="http://www.w3.org/1999/02/22-rdf-syntax-ns#"
   xmlns:svg="http://www.w3.org/2000/svg"
   xmlns="http://www.w3.org/2000/svg"
   xmlns:sodipodi="http://sodipodi.sourceforge.net/DTD/sodipodi-0.dtd"
   xmlns:inkscape="http://www.inkscape.org/namespaces/inkscape"
   width="320mm"
   height="160mm"
   viewBox="0 0 1133.8583 566.92913"
   id="svg2"
   version="1.1"
   inkscape:version="0.91 r13725"
   sodipodi:docname="title.svg">
  <defs
     id="defs4" />
  <sodipodi:namedview
     id="base"
     pagecolor="#000000"
     bordercolor="#666666"
     borderopacity="1.0"
     inkscape:pageopacity="1"
     inkscape:pageshadow="2"
     inkscape:zoom="0.7"
     inkscape:cx="435.69893"
     inkscape:cy="284.28149"
     inkscape:document-units="px"
     inkscape:current-layer="layer1"
     showgrid="false"
     inkscape:window-width="1920"
     inkscape:window-height="1027"
     inkscape:window-x="0"
     inkscape:window-y="25"
     inkscape:window-maximized="1" />
  <metadata
     id="metadata7">
    <rdf:RDF>
      <cc:Work
         rdf:about="">
        <dc:format>image/svg+xml</dc:format>
        <dc:type
           rdf:resource="http://purl.org/dc/dcmitype/StillImage" />
        <dc:title></dc:title>
      </cc:Work>
    </rdf:RDF>
  </metadata>
  <g
     inkscape:label="Layer 1"
     inkscape:groupmode="layer"
     id="layer1"
     transform="translate(0,-485.43307)">
    <g
       transform="matrix(3.2429799,0,0,3.2429799,-304.1159,-2384.4532)"
       id="layer1-6"
       inkscape:label="Layer 1">
      <g
         transform="translate(-1.9686816,3.9743126)"
         id="g3417">
        <text
           xml:space="preserve"
           style="font-style:normal;font-weight:normal;font-size:40px;line-height:125%;font-family:sans-serif;letter-spacing:0px;word-spacing:0px;fill:#000000;fill-opacity:1;stroke:none;stroke-width:1px;stroke-linecap:butt;stroke-linejoin:miter;stroke-opacity:1"
           x="108.94997"
           y="960.97644"
           id="text3344"
           sodipodi:linespacing="125%"><tspan
             sodipodi:role="line"
             x="108.94997"
             y="960.97644"
             style="font-style:normal;font-variant:normal;font-weight:bold;font-stretch:normal;font-size:40px;font-family:NanumBarunGothic;-inkscape-font-specification:'NanumBarunGothic Bold';fill:#ffffff"
             id="tspan3348">이</tspan></text>
        <text
           xml:space="preserve"
           style="font-style:normal;font-weight:normal;font-size:40px;line-height:125%;font-family:sans-serif;letter-spacing:0px;word-spacing:0px;fill:#000000;fill-opacity:1;stroke:none;stroke-width:1px;stroke-linecap:butt;stroke-linejoin:miter;stroke-opacity:1"
           x="142.64868"
           y="961.17645"
           id="text3352"
           sodipodi:linespacing="125%"><tspan
             sodipodi:role="line"
             id="tspan3354"
             x="142.64868"
             y="961.17645"
             style="font-style:normal;font-variant:normal;font-weight:bold;font-stretch:normal;font-family:NanumBarunGothic;-inkscape-font-specification:'NanumBarunGothic Bold';fill:#ffffff">일</tspan></text>
        <text
           xml:space="preserve"
           style="font-style:normal;font-weight:normal;font-size:40px;line-height:125%;font-family:sans-serif;letter-spacing:0px;word-spacing:0px;fill:#000000;fill-opacity:1;stroke:none;stroke-width:1px;stroke-linecap:butt;stroke-linejoin:miter;stroke-opacity:1"
           x="179.3074"
           y="960.97644"
           id="text3356"
           sodipodi:linespacing="125%"><tspan
             sodipodi:role="line"
             id="tspan3358"
             x="179.3074"
             y="960.97644"
             style="font-style:normal;font-variant:normal;font-weight:bold;font-stretch:normal;font-family:NanumBarunGothic;-inkscape-font-specification:'NanumBarunGothic Bold';fill:#ffffff">재</tspan></text>
        <text
           xml:space="preserve"
           style="font-style:normal;font-weight:normal;font-size:40px;line-height:125%;font-family:sans-serif;letter-spacing:0px;word-spacing:0px;fill:#000000;fill-opacity:1;stroke:none;stroke-width:1px;stroke-linecap:butt;stroke-linejoin:miter;stroke-opacity:1"
           x="117.29106"
           y="996.36926"
           id="text3360"
           sodipodi:linespacing="125%"><tspan
             sodipodi:role="line"
             id="tspan3362"
             x="117.29106"
             y="996.36926"
             style="font-size:20px;fill:#ffffff">✕</tspan></text>
        <text
           xml:space="preserve"
           style="font-style:normal;font-weight:normal;font-size:40px;line-height:125%;font-family:sans-serif;letter-spacing:0px;word-spacing:0px;fill:#000000;fill-opacity:1;stroke:none;stroke-width:1px;stroke-linecap:butt;stroke-linejoin:miter;stroke-opacity:1"
           x="142.68867"
           y="1002.7992"
           id="text3364"
           sodipodi:linespacing="125%"><tspan
             sodipodi:role="line"
             id="tspan3366"
             x="142.68867"
             y="1002.7992"
             style="font-style:normal;font-variant:normal;font-weight:bold;font-stretch:normal;font-family:NanumBarunGothic;-inkscape-font-specification:'NanumBarunGothic Bold';fill:#ffffff">唐</tspan></text>
        <text
           xml:space="preserve"
           style="font-style:normal;font-weight:normal;font-size:40px;line-height:125%;font-family:sans-serif;letter-spacing:0px;word-spacing:0px;fill:#000000;fill-opacity:1;stroke:none;stroke-width:1px;stroke-linecap:butt;stroke-linejoin:miter;stroke-opacity:1"
           x="177.3474"
           y="1002.3192"
           id="text3368"
           sodipodi:linespacing="125%"><tspan
             sodipodi:role="line"
             id="tspan3370"
             x="177.3474"
             y="1002.3192"
             style="font-style:normal;font-variant:normal;font-weight:bold;font-stretch:normal;font-family:NanumBarunGothic;-inkscape-font-specification:'NanumBarunGothic Bold';fill:#ffffff">榕</tspan></text>
      </g>
    </g>
    <path
       inkscape:connector-curvature="0"
       id="path4248"
       style="font-style:normal;font-variant:normal;font-weight:300;font-stretch:normal;font-size:90px;line-height:100%;font-family:'Josefin Sans';-inkscape-font-specification:'Josefin Sans Light';letter-spacing:15px;word-spacing:0px;fill:#ffffff;fill-opacity:1;stroke:none;stroke-width:1px;stroke-linecap:butt;stroke-linejoin:miter;stroke-opacity:1"
       d="m 537.52323,737.12763 0,66.51 q -5.13,-6.39 -11.52,-13.95 -6.39,-7.56 -12.96,-15.39 -6.48,-7.83 -12.6,-15.3 -6.12,-7.56 -10.8,-13.77 l -1.71,-2.34 0.27,2.88 0,54.99 -3.78,0 0,-66.6 q 5.22,6.57 11.43,14.13 6.3,7.56 12.78,15.3 6.48,7.74 12.6,15.21 6.21,7.47 11.16,13.77 l 1.71,2.34 -0.27,-2.88 0,-54.9 3.69,0 z" />
    <path
       inkscape:connector-curvature="0"
       id="path4250"
       style="font-style:normal;font-variant:normal;font-weight:300;font-stretch:normal;font-size:90px;line-height:100%;font-family:'Josefin Sans';-inkscape-font-specification:'Josefin Sans Light';letter-spacing:15px;word-spacing:0px;fill:#ffffff;fill-opacity:1;stroke:none;stroke-width:1px;stroke-linecap:butt;stroke-linejoin:miter;stroke-opacity:1"
       d="m 593.24823,801.47763 q -4.59,0 -8.55,-1.44 -3.96,-1.44 -6.84,-4.23 -2.88,-2.79 -4.59,-6.84 -1.62,-4.14 -1.62,-9.36 l 0,-42.48 3.78,0 0,42.21 q 0,4.32 1.35,7.83 1.35,3.42 3.69,5.85 2.34,2.43 5.58,3.69 3.33,1.26 7.2,1.26 3.78,0 7.02,-1.26 3.33,-1.26 5.67,-3.69 2.43,-2.43 3.78,-5.85 1.35,-3.51 1.35,-7.83 l 0,-42.21 3.78,0 0,42.48 q 0,5.22 -1.71,9.36 -1.62,4.05 -4.59,6.84 -2.88,2.79 -6.84,4.23 -3.87,1.44 -8.46,1.44 z" />
    <path
       inkscape:connector-curvature="0"
       id="path4252"
       style="font-style:normal;font-variant:normal;font-weight:300;font-stretch:normal;font-size:90px;line-height:100%;font-family:'Josefin Sans';-inkscape-font-specification:'Josefin Sans Light';letter-spacing:15px;word-spacing:0px;fill:#ffffff;fill-opacity:1;stroke:none;stroke-width:1px;stroke-linecap:butt;stroke-linejoin:miter;stroke-opacity:1"
       d="m 648.89588,800.75763 0,-63.63 3.78,0 0,60.03 35.28,0 0,3.6 -39.06,0 z" />
    <path
       inkscape:connector-curvature="0"
       id="path4254"
       style="font-style:normal;font-variant:normal;font-weight:300;font-stretch:normal;font-size:90px;line-height:100%;font-family:'Josefin Sans';-inkscape-font-specification:'Josefin Sans Light';letter-spacing:15px;word-spacing:0px;fill:#ffffff;fill-opacity:1;stroke:none;stroke-width:1px;stroke-linecap:butt;stroke-linejoin:miter;stroke-opacity:1"
       d="m 713.99354,800.75763 0,-63.63 3.78,0 0,60.03 35.28,0 0,3.6 -39.06,0 z" />
    <path
       inkscape:connector-curvature="0"
       id="path4256"
       style="font-style:normal;font-variant:normal;font-weight:300;font-stretch:normal;font-size:90px;line-height:100%;font-family:'Josefin Sans';-inkscape-font-specification:'Josefin Sans Light';letter-spacing:15px;word-spacing:0px;fill:#ffffff;fill-opacity:1;stroke:none;stroke-width:1px;stroke-linecap:butt;stroke-linejoin:miter;stroke-opacity:1"
       d="m 810.2312,740.27763 -1.35,2.97 q -2.79,-1.17 -6.75,-2.07 -3.87,-0.99 -7.65,-0.99 -3.42,0 -6.21,0.99 -2.79,0.9 -4.77,2.52 -1.89,1.53 -2.97,3.69 -0.99,2.07 -0.99,4.5 0,2.88 1.44,4.86 1.44,1.98 3.78,3.42 2.43,1.44 5.4,2.61 3.06,1.08 6.21,2.25 3.24,1.17 6.21,2.7 3.06,1.44 5.4,3.6 2.43,2.07 3.87,5.04 1.44,2.88 1.44,7.11 0,4.14 -1.53,7.47 -1.44,3.33 -4.23,5.67 -2.79,2.34 -6.66,3.6 -3.87,1.26 -8.64,1.26 -3.78,0 -6.93,-0.72 -3.06,-0.72 -5.49,-1.71 -2.43,-1.08 -4.23,-2.07 -1.71,-1.08 -2.7,-1.62 l 1.8,-3.33 q 1.44,0.99 3.42,2.07 2.07,0.99 4.32,1.89 2.34,0.81 4.86,1.35 2.52,0.54 5.04,0.54 2.88,0 5.94,-0.81 3.06,-0.9 5.58,-2.61 2.52,-1.8 4.14,-4.5 1.62,-2.79 1.62,-6.57 0,-3.6 -1.44,-6.12 -1.44,-2.52 -3.87,-4.23 -2.34,-1.8 -5.4,-3.06 -2.97,-1.35 -6.21,-2.52 -3.15,-1.17 -6.21,-2.43 -2.97,-1.26 -5.4,-2.97 -2.34,-1.71 -3.78,-4.05 -1.44,-2.34 -1.44,-5.76 0,-3.15 1.26,-5.94 1.35,-2.88 3.69,-4.95 2.43,-2.16 5.76,-3.33 3.33,-1.26 7.38,-1.26 2.07,0 4.32,0.36 2.34,0.27 4.59,0.81 2.25,0.45 4.14,1.08 1.98,0.63 3.24,1.26 z" />
    <path
       inkscape:connector-curvature="0"
       id="path4258"
       style="font-style:normal;font-variant:normal;font-weight:300;font-stretch:normal;font-size:90px;line-height:100%;font-family:'Josefin Sans';-inkscape-font-specification:'Josefin Sans Light';letter-spacing:15px;word-spacing:0px;fill:#ffffff;fill-opacity:1;stroke:none;stroke-width:1px;stroke-linecap:butt;stroke-linejoin:miter;stroke-opacity:1"
       d="m 846.5626,769.88763 9.9,0 q 4.77,0 7.92,-1.53 3.15,-1.53 4.95,-3.78 1.89,-2.34 2.61,-4.95 0.72,-2.7 0.72,-4.86 0,-2.97 -1.17,-5.49 -1.08,-2.61 -3.24,-4.5 -2.07,-1.98 -5.04,-3.06 -2.97,-1.08 -6.66,-1.08 l -9.99,0 0,29.25 z m -3.78,30.87 0,-63.63 14.13,0 q 3.33,0 6.75,0.99 3.51,0.99 6.3,3.15 2.88,2.07 4.68,5.49 1.8,3.33 1.8,8.1 0,3.51 -1.17,6.84 -1.08,3.33 -3.51,6.03 -2.43,2.61 -6.3,4.23 -3.78,1.53 -9.09,1.53 l -9.81,0 0,27.27 -3.78,0 z" />
    <path
       inkscape:connector-curvature="0"
       id="path4260"
       style="font-style:normal;font-variant:normal;font-weight:300;font-stretch:normal;font-size:90px;line-height:100%;font-family:'Josefin Sans';-inkscape-font-specification:'Josefin Sans Light';letter-spacing:15px;word-spacing:0px;fill:#ffffff;fill-opacity:1;stroke:none;stroke-width:1px;stroke-linecap:butt;stroke-linejoin:miter;stroke-opacity:1"
       d="m 942.87901,800.75763 q -2.34,-5.67 -5.04,-12.24 -2.61,-6.57 -5.31,-13.59 l -25.74,0 q -2.7,7.02 -5.31,13.59 -2.61,6.57 -4.95,12.24 l -3.78,0 q 1.89,-4.41 4.05,-9.81 2.25,-5.4 4.59,-11.34 2.43,-5.94 4.86,-12.06 2.43,-6.21 4.77,-12.15 2.43,-5.94 4.59,-11.34 2.25,-5.49 4.14,-9.9 1.8,4.41 3.96,9.9 2.25,5.4 4.59,11.34 2.43,5.94 4.86,12.15 2.43,6.12 4.77,12.06 2.43,5.94 4.59,11.34 2.25,5.4 4.14,9.81 l -3.78,0 z m -24.03,-56.07 q -2.52,5.94 -5.22,12.87 -2.7,6.84 -5.58,14.13 l 23.22,0 q -2.79,-7.29 -5.58,-14.13 -2.7,-6.93 -5.13,-12.87 l -0.81,-2.61 q -0.18,0.72 -0.45,1.44 -0.27,0.72 -0.45,1.17 z" />
    <path
       inkscape:connector-curvature="0"
       id="path4262"
       style="font-style:normal;font-variant:normal;font-weight:300;font-stretch:normal;font-size:90px;line-height:100%;font-family:'Josefin Sans';-inkscape-font-specification:'Josefin Sans Light';letter-spacing:15px;word-spacing:0px;fill:#ffffff;fill-opacity:1;stroke:none;stroke-width:1px;stroke-linecap:butt;stroke-linejoin:miter;stroke-opacity:1"
       d="m 1016.3017,796.70763 q -3.15,1.98 -7.65,3.42 -4.41,1.35 -9.99003,1.35 -7.29,0 -13.23,-2.52 -5.94,-2.61 -10.17,-7.02 -4.14,-4.41 -6.48,-10.26 -2.25,-5.85 -2.25,-12.33 0,-7.02 2.52,-12.96 2.61,-6.03 7.02,-10.44 4.5,-4.5 10.35,-7.02 5.94,-2.52 12.69,-2.52 4.86003,0 9.27003,1.26 4.41,1.17 7.56,3.24 -0.54,0.81 -0.81,1.35 -0.27,0.45 -0.99,1.62 -3.15,-1.98 -7.11,-2.97 -3.87,-0.99 -7.74003,-0.99 -6.03,0 -11.34,2.34 -5.31,2.25 -9.27,6.3 -3.87,3.96 -6.21,9.27 -2.25,5.31 -2.25,11.34 0,5.67 1.98,10.89 2.07,5.13 5.76,9.09 3.78,3.87 9,6.21 5.31,2.34 11.7,2.34 4.95003,0 9.09003,-1.26 4.14,-1.35 6.84,-3.06 l 1.71,3.33 z" />
    <path
       inkscape:connector-curvature="0"
       id="path4264"
       style="font-style:normal;font-variant:normal;font-weight:300;font-stretch:normal;font-size:90px;line-height:100%;font-family:'Josefin Sans';-inkscape-font-specification:'Josefin Sans Light';letter-spacing:15px;word-spacing:0px;fill:#ffffff;fill-opacity:1;stroke:none;stroke-width:1px;stroke-linecap:butt;stroke-linejoin:miter;stroke-opacity:1"
       d="m 1044.5795,800.75763 0,-63.63 38.97,0 0,3.42 -35.19,0 0,26.46 31.59,0 0,3.42 -31.59,0 0,26.82 36.45,0 0,3.51 -40.23,0 z" />
    <path
       style="fill:#ffffff;fill-rule:evenodd;stroke:#ffffff;stroke-width:10;stroke-linecap:butt;stroke-linejoin:miter;stroke-miterlimit:4;stroke-dasharray:none;stroke-opacity:1"
       d="m 432.4481,869.6119 0,-201.42857 z"
       id="path3409"
       inkscape:connector-curvature="0" />
  </g>
</svg>
