<?xml version="1.0" encoding="UTF-8" standalone="no"?>
<!-- Created with Inkscape (http://www.inkscape.org/) -->

<svg
   xmlns:dc="http://purl.org/dc/elements/1.1/"
   xmlns:cc="http://creativecommons.org/ns#"
   xmlns:rdf="http://www.w3.org/1999/02/22-rdf-syntax-ns#"
   xmlns:svg="http://www.w3.org/2000/svg"
   xmlns="http://www.w3.org/2000/svg"
   xmlns:sodipodi="http://sodipodi.sourceforge.net/DTD/sodipodi-0.dtd"
   xmlns:inkscape="http://www.inkscape.org/namespaces/inkscape"
   width="320mm"
   height="160mm"
   viewBox="0 0 1133.8583 566.92913"
   id="svg2"
   version="1.1"
   inkscape:version="0.91 r13725"
   sodipodi:docname="title.svg">
  <defs
     id="defs4" />
  <sodipodi:namedview
     id="base"
     pagecolor="#000000"
     bordercolor="#666666"
     borderopacity="1.0"
     inkscape:pageopacity="1"
     inkscape:pageshadow="2"
     inkscape:zoom="0.7"
     inkscape:cx="435.69893"
     inkscape:cy="284.28149"
     inkscape:document-units="px"
     inkscape:current-layer="layer1"
     showgrid="false"
     inkscape:window-width="1920"
     inkscape:window-height="1027"
     inkscape:window-x="0"
     inkscape:window-y="25"
     inkscape:window-maximized="1" />
  <metadata
     id="metadata7">
    <rdf:RDF>
      <cc:Work
         rdf:about="">
        <dc:format>image/svg+xml</dc:format>
        <dc:type
           rdf:resource="http://purl.org/dc/dcmitype/StillImage" />
        <dc:title />
      </cc:Work>
    </rdf:RDF>
  </metadata>
  <g
     inkscape:label="Layer 1"
     inkscape:groupmode="layer"
     id="layer1"
     transform="translate(0,-485.43307)">
    <g
       style="font-style:normal;font-weight:normal;font-size:129.7191925px;line-height:125%;font-family:sans-serif;letter-spacing:0px;word-spacing:0px;fill:#000000;fill-opacity:1;stroke:none;stroke-width:1px;stroke-linecap:butt;stroke-linejoin:miter;stroke-opacity:1"
       id="text3344">
      <path
         d="m 128.95581,642.90339 16.08518,0 0,120.24969 -16.08518,0 0,-120.24969 z m -16.8635,50.33104 q 0,10.50726 -2.33494,18.67957 -2.20523,8.04259 -6.35625,13.62051 -4.151009,5.57793 -9.988373,8.43175 -5.707645,2.85382 -12.8422,2.85382 -7.134556,0 -12.971919,-2.85382 -5.707645,-2.85382 -9.858659,-8.43175 -4.151014,-5.57792 -6.48596,-13.62051 -2.205226,-8.17231 -2.205226,-18.67957 0,-10.50725 2.205226,-18.54984 2.334946,-8.17231 6.48596,-13.75024 4.151014,-5.57792 9.858659,-8.43174 5.837363,-2.85383 12.971919,-2.85383 7.134555,0 12.8422,2.85383 5.837364,2.85382 9.988373,8.43174 4.15102,5.57793 6.35625,13.75024 2.33494,8.04259 2.33494,18.54984 z m -16.344618,0 q 0,-14.00967 -4.021295,-21.92254 -3.891575,-7.91287 -11.15585,-7.91287 -7.264275,0 -11.28557,7.91287 -3.891576,7.91287 -3.891576,21.92254 0,14.00968 3.891576,21.92255 4.021295,7.91287 11.28557,7.91287 7.264275,0 11.15585,-7.91287 4.021295,-7.91287 4.021295,-21.92255 z"
         style="font-style:normal;font-variant:normal;font-weight:bold;font-stretch:normal;font-size:129.7191925px;font-family:NanumBarunGothic;-inkscape-font-specification:'NanumBarunGothic Bold';fill:#ffffff"
         id="path3398" />
    </g>
    <g
       style="font-style:normal;font-weight:normal;font-size:129.7191925px;line-height:125%;font-family:sans-serif;letter-spacing:0px;word-spacing:0px;fill:#000000;fill-opacity:1;stroke:none;stroke-width:1px;stroke-linecap:butt;stroke-linejoin:miter;stroke-opacity:1"
       id="text3352">
      <path
         d="m 238.24007,643.55201 16.08518,0 0,60.1897 -16.08518,0 0,-60.1897 z m 18.42012,118.9525 -79.12871,0 0,-33.33784 60.8383,0 0,-7.39399 -60.8383,0 0,-12.97192 76.79377,0 0,33.07839 -61.09774,0 0,7.52372 63.43268,0 0,13.10164 z m -97.15967,-88.72793 q 0,-5.96708 2.20522,-11.15585 2.33495,-5.18877 6.48596,-8.95063 4.28073,-3.76185 9.98838,-5.83736 5.83736,-2.20523 12.8422,-2.20523 6.7454,0 12.45304,2.20523 5.83737,2.07551 9.98838,5.83736 4.15101,3.76186 6.48596,8.95063 2.46466,5.18877 2.46466,11.15585 0,5.96708 -2.33494,11.02613 -2.33495,5.05905 -6.48596,8.8209 -4.15102,3.63214 -9.98838,5.83737 -5.70764,2.07551 -12.58276,2.07551 -6.87512,0 -12.71248,-2.07551 -5.83737,-2.20523 -9.98838,-5.83737 -4.15101,-3.76185 -6.48596,-8.8209 -2.33494,-5.05905 -2.33494,-11.02613 z m 16.21489,0 q 0,6.87512 4.0213,10.76669 4.02129,3.76186 11.15585,3.76186 7.00484,0 11.02613,-3.76186 4.15102,-3.89157 4.15102,-10.76669 0,-7.00484 -4.15102,-10.76669 -4.02129,-3.89158 -11.02613,-3.89158 -7.00484,0 -11.15585,3.89158 -4.0213,3.76185 -4.0213,10.76669 z"
         style="font-style:normal;font-variant:normal;font-weight:bold;font-stretch:normal;font-family:NanumBarunGothic;-inkscape-font-specification:'NanumBarunGothic Bold';fill:#ffffff"
         id="path3395" />
    </g>
    <g
       style="font-style:normal;font-weight:normal;font-size:129.7191925px;line-height:125%;font-family:sans-serif;letter-spacing:0px;word-spacing:0px;fill:#000000;fill-opacity:1;stroke:none;stroke-width:1px;stroke-linecap:butt;stroke-linejoin:miter;stroke-opacity:1"
       id="text3356">
      <path
         d="m 305.75476,666.38256 q -4.28073,0.25944 -8.56146,0.25944 -4.15102,0 -8.30203,0 l -10.50726,0 0,-13.36108 16.47434,0 q 6.7454,0 13.36108,0 6.7454,0 13.62051,-0.25944 -0.77831,21.66311 -8.56146,41.12099 3.3727,7.91287 8.56146,14.78798 5.31849,6.87512 12.06389,12.58277 l 0,-77.31264 15.30686,0 0,43.19649 10.1181,0 0,-44.49368 15.5663,0 0,120.24969 -15.5663,0 0,-62.39493 -10.1181,0 0,59.41139 -15.30686,0 0,-30.61373 -6.87512,6.0968 q -5.70764,-4.15102 -11.15585,-11.15585 -5.4482,-7.00484 -9.59922,-15.56631 -4.54017,8.17231 -10.37753,15.56631 -5.83737,7.39399 -13.23136,14.13939 l -11.54501,-8.82091 q 8.56147,-7.65343 14.78799,-15.69602 6.35624,-8.17231 10.50725,-16.2149 4.15102,-8.17231 6.35624,-16.08518 2.33495,-8.04259 2.98354,-15.43658 z"
         style="font-style:normal;font-variant:normal;font-weight:bold;font-stretch:normal;font-family:NanumBarunGothic;-inkscape-font-specification:'NanumBarunGothic Bold';fill:#ffffff"
         id="path3392" />
    </g>
    <g
       style="font-style:normal;font-weight:normal;font-size:129.7191925px;line-height:125%;font-family:sans-serif;letter-spacing:0px;word-spacing:0px;fill:#000000;fill-opacity:1;stroke:none;stroke-width:1px;stroke-linecap:butt;stroke-linejoin:miter;stroke-opacity:1"
       id="text3360">
      <path
         d="m 101.51032,836.01525 14.47306,14.47307 -4.4971,4.46543 -14.441395,-14.47306 -14.473064,14.47306 -4.497101,-4.46543 14.473064,-14.47307 -14.473064,-14.47306 4.497101,-4.46543 14.473064,14.44139 14.473065,-14.47306 4.4971,4.46543 -14.50473,14.50473 z"
         style="font-size:64.85959625px;fill:#ffffff"
         id="path3389" />
    </g>
    <g
       style="font-style:normal;font-weight:normal;font-size:129.7191925px;line-height:125%;font-family:sans-serif;letter-spacing:0px;word-spacing:0px;fill:#000000;fill-opacity:1;stroke:none;stroke-width:1px;stroke-linecap:butt;stroke-linejoin:miter;stroke-opacity:1"
       id="text3364">
      <path
         d="m 262.49753,833.79413 -12.58276,0 0,16.99322 -27.50047,0 0,4.79961 -14.13939,0 0,-4.79961 -25.55468,0 0,-11.28557 25.55468,0 0,-5.70765 -28.66794,0 q 0,8.69119 -0.6486,17.12294 -0.51887,8.30202 -2.33494,16.2149 -1.55663,7.26427 -4.28073,13.75023 -2.59439,6.48596 -6.87512,11.93417 -1.68635,-1.81607 -4.92933,-5.05905 -3.24298,-3.11326 -6.87512,-5.96709 3.76186,-4.79961 5.96709,-9.98837 2.33494,-5.31849 3.63213,-11.02614 1.94579,-8.56146 2.20523,-17.38237 0.25944,-8.95062 0.25944,-17.25265 l 0,-37.35913 42.54789,0 q 0,-5.57792 -1.16747,-11.67472 l 16.47434,0 q -0.51888,3.11326 -0.90804,5.96708 -0.25944,2.7241 -0.25944,5.70764 l 36.58082,0 0,11.80445 -79.38815,0 0,21.92254 28.66794,0 0,-5.31848 -24.77636,0 0,-11.28557 24.64664,0 -0.51887,-4.15102 15.43658,0 -0.6486,4.15102 27.50047,0 0,16.60405 12.58276,0 0,11.28557 z m -9.72893,60.57887 -14.1394,0 0,-4.6699 -42.67761,0 0,5.18877 -14.39883,0 0,-37.61856 71.21584,0 0,37.09969 z m -16.99322,-71.86444 0,-5.31848 -13.36108,0 0,5.31848 13.36108,0 z m 0,16.99322 0,-5.70765 -13.36108,0 0,5.70765 13.36108,0 z m 2.85382,38.91575 0,-10.24781 -42.67761,0 0,10.24781 42.67761,0 z"
         style="font-style:normal;font-variant:normal;font-weight:bold;font-stretch:normal;font-family:NanumBarunGothic;-inkscape-font-specification:'NanumBarunGothic Bold';fill:#ffffff"
         id="path3386" />
    </g>
    <g
       style="font-style:normal;font-weight:normal;font-size:129.7191925px;line-height:125%;font-family:sans-serif;letter-spacing:0px;word-spacing:0px;fill:#000000;fill-opacity:1;stroke:none;stroke-width:1px;stroke-linecap:butt;stroke-linejoin:miter;stroke-opacity:1"
       id="text3368">
      <path
         d="m 349.72955,790.33825 23.21973,0 0,22.57114 -13.75023,0 0,-10.89641 -35.02418,0 0,10.89641 -13.62052,0 0,-22.57114 24.51693,0 q 0,-2.85382 -0.51888,-6.22652 -0.38915,-3.3727 -0.90803,-6.87511 l 17.12293,0 q -0.64859,3.63213 -0.90803,7.00483 -0.12972,3.24298 -0.12972,6.0968 z m -4.66989,26.59244 7.65343,-7.65343 q 2.46466,2.20522 5.57793,4.79961 3.24298,2.59438 6.48596,5.05904 3.37269,2.46467 6.35624,4.54018 3.11326,2.0755 5.31848,3.11326 -0.64859,0.64859 -1.68635,2.0755 -1.03775,1.42692 -2.20522,2.98355 -1.16748,1.42691 -2.20523,2.85382 -1.03775,1.42691 -1.68635,2.0755 -2.20523,-1.42691 -5.18877,-3.76185 -2.98354,-2.33495 -6.22652,-5.05905 -3.11326,-2.7241 -6.35624,-5.57793 -3.24298,-2.85382 -5.83736,-5.4482 z m -37.22941,11.28557 q 2.7241,-1.68635 5.70764,-3.76186 3.11326,-2.20522 5.96709,-4.66989 2.98354,-2.46466 5.4482,-5.05905 2.46467,-2.59438 4.0213,-5.05905 0.38916,0.25944 1.81607,1.42691 1.42691,1.03776 3.11326,2.33495 1.68635,1.29719 2.98354,2.46466 1.29719,1.03776 1.55663,1.16748 -1.81607,2.33494 -4.54017,5.18877 -2.72411,2.85382 -5.96709,5.83736 -3.24298,2.85382 -6.61567,5.57792 -3.3727,2.59439 -6.48596,4.54018 -1.03776,-2.20523 -2.98355,-5.18877 -1.94578,-2.98354 -4.02129,-4.79961 z m 45.272,38.78604 -23.09002,0 0,11.93416 23.09002,0 0,-11.93416 z m -50.07161,-12.45305 q 4.92933,-2.33494 9.98838,-5.96708 5.05905,-3.63214 9.72894,-8.04259 4.79961,-4.41045 8.95062,-9.33978 4.15102,-5.05905 7.26428,-10.24782 1.16747,0.6486 2.98354,1.68635 1.81607,0.90804 3.50242,1.94579 1.68634,0.90804 2.85382,1.55663 1.29719,0.6486 1.29719,0.77832 -0.25944,0.64859 -0.38916,1.16747 -0.12972,0.51888 -0.64859,1.16747 2.20522,2.7241 5.70764,5.83737 3.50242,3.11326 7.78315,6.22652 4.28074,3.11326 8.95063,5.96708 4.79961,2.7241 9.4695,4.79961 -0.90804,1.03775 -2.07551,2.59438 -1.16747,1.42691 -2.46466,3.11326 -1.16748,1.55663 -2.33495,3.11326 -1.16747,1.55663 -1.94579,2.72411 -0.12972,0 -0.77831,-0.38916 -0.51888,-0.51888 -1.29719,-1.03775 -0.77832,-0.51888 -1.55664,-1.03776 -0.77831,-0.51887 -1.16747,-0.90803 l 0,32.81895 -13.75023,0 0,-2.59438 -23.09002,0 0,4.28073 -13.87995,0 0,-32.81895 -4.28074,2.59438 q -0.38915,-0.51887 -1.55663,-1.81607 -1.03775,-1.29719 -2.46466,-2.7241 -1.29719,-1.55663 -2.59438,-2.98354 -1.2972,-1.42691 -2.20523,-2.46467 z m 22.70086,0.77832 33.72699,0 q -2.07551,-1.55663 -4.54017,-3.50242 -2.33495,-1.94579 -4.79961,-4.02129 -2.33495,-2.20523 -4.54018,-4.41046 -2.20522,-2.20522 -3.76185,-4.15101 -1.94579,2.33494 -4.15102,4.66989 -2.20522,2.33495 -4.41045,4.54017 -2.20522,2.07551 -4.15101,3.89158 -1.94579,1.81607 -3.3727,2.98354 z m -44.88284,-77.96124 17.25265,0 q -0.6486,4.15102 -0.90803,8.17231 -0.12972,3.89158 -0.12972,7.65344 l 0,7.65343 8.95062,0 0,12.8422 -8.95062,0 0,13.36108 5.05905,-2.46467 q 2.59438,4.92933 5.05904,9.85866 2.59439,4.79961 4.54018,10.1181 -0.77832,0.38915 -2.20523,1.16747 -1.42691,0.77831 -3.11326,1.55663 -1.68635,0.77831 -3.3727,1.55663 -1.68635,0.6486 -2.7241,1.03775 -0.25944,-1.55663 -0.77832,-3.11326 -0.51888,-1.55663 -1.03775,-2.85382 -0.51888,-1.42691 -1.03776,-2.46466 -0.38915,-1.03776 -0.38915,-1.42692 l 0,54.7415 -15.17715,0 0,-40.73182 -6.22652,11.41529 q -0.90803,-1.16748 -2.33495,-2.59439 -1.42691,-1.55663 -2.98354,-2.85382 -1.42691,-1.42691 -2.85382,-2.59438 -1.29719,-1.16748 -1.94579,-1.68635 4.28074,-5.96709 7.13456,-11.15585 2.85382,-5.18877 4.79961,-10.24782 1.94579,-5.05905 2.98354,-9.98838 1.03775,-5.05905 1.55663,-10.63697 l -12.06388,0 0,-12.8422 11.93416,0 0,-7.91287 q 0,-3.63214 -0.25944,-7.65343 -0.25944,-4.0213 -0.77831,-7.91288 z"
         style="font-style:normal;font-variant:normal;font-weight:bold;font-stretch:normal;font-family:NanumBarunGothic;-inkscape-font-specification:'NanumBarunGothic Bold';fill:#ffffff"
         id="path3383" />
    </g>
    <path
       inkscape:connector-curvature="0"
       id="path4248"
       style="font-style:normal;font-variant:normal;font-weight:300;font-stretch:normal;font-size:90px;line-height:100%;font-family:'Josefin Sans';-inkscape-font-specification:'Josefin Sans Light';letter-spacing:15px;word-spacing:0px;fill:#ffffff;fill-opacity:1;stroke:none;stroke-width:1px;stroke-linecap:butt;stroke-linejoin:miter;stroke-opacity:1"
       d="m 537.52323,737.12763 0,66.51 q -5.13,-6.39 -11.52,-13.95 -6.39,-7.56 -12.96,-15.39 -6.48,-7.83 -12.6,-15.3 -6.12,-7.56 -10.8,-13.77 l -1.71,-2.34 0.27,2.88 0,54.99 -3.78,0 0,-66.6 q 5.22,6.57 11.43,14.13 6.3,7.56 12.78,15.3 6.48,7.74 12.6,15.21 6.21,7.47 11.16,13.77 l 1.71,2.34 -0.27,-2.88 0,-54.9 3.69,0 z" />
    <path
       inkscape:connector-curvature="0"
       id="path4250"
       style="font-style:normal;font-variant:normal;font-weight:300;font-stretch:normal;font-size:90px;line-height:100%;font-family:'Josefin Sans';-inkscape-font-specification:'Josefin Sans Light';letter-spacing:15px;word-spacing:0px;fill:#ffffff;fill-opacity:1;stroke:none;stroke-width:1px;stroke-linecap:butt;stroke-linejoin:miter;stroke-opacity:1"
       d="m 593.24823,801.47763 q -4.59,0 -8.55,-1.44 -3.96,-1.44 -6.84,-4.23 -2.88,-2.79 -4.59,-6.84 -1.62,-4.14 -1.62,-9.36 l 0,-42.48 3.78,0 0,42.21 q 0,4.32 1.35,7.83 1.35,3.42 3.69,5.85 2.34,2.43 5.58,3.69 3.33,1.26 7.2,1.26 3.78,0 7.02,-1.26 3.33,-1.26 5.67,-3.69 2.43,-2.43 3.78,-5.85 1.35,-3.51 1.35,-7.83 l 0,-42.21 3.78,0 0,42.48 q 0,5.22 -1.71,9.36 -1.62,4.05 -4.59,6.84 -2.88,2.79 -6.84,4.23 -3.87,1.44 -8.46,1.44 z" />
    <path
       inkscape:connector-curvature="0"
       id="path4252"
       style="font-style:normal;font-variant:normal;font-weight:300;font-stretch:normal;font-size:90px;line-height:100%;font-family:'Josefin Sans';-inkscape-font-specification:'Josefin Sans Light';letter-spacing:15px;word-spacing:0px;fill:#ffffff;fill-opacity:1;stroke:none;stroke-width:1px;stroke-linecap:butt;stroke-linejoin:miter;stroke-opacity:1"
       d="m 648.89588,800.75763 0,-63.63 3.78,0 0,60.03 35.28,0 0,3.6 -39.06,0 z" />
    <path
       inkscape:connector-curvature="0"
       id="path4254"
       style="font-style:normal;font-variant:normal;font-weight:300;font-stretch:normal;font-size:90px;line-height:100%;font-family:'Josefin Sans';-inkscape-font-specification:'Josefin Sans Light';letter-spacing:15px;word-spacing:0px;fill:#ffffff;fill-opacity:1;stroke:none;stroke-width:1px;stroke-linecap:butt;stroke-linejoin:miter;stroke-opacity:1"
       d="m 713.99354,800.75763 0,-63.63 3.78,0 0,60.03 35.28,0 0,3.6 -39.06,0 z" />
    <path
       inkscape:connector-curvature="0"
       id="path4256"
       style="font-style:normal;font-variant:normal;font-weight:300;font-stretch:normal;font-size:90px;line-height:100%;font-family:'Josefin Sans';-inkscape-font-specification:'Josefin Sans Light';letter-spacing:15px;word-spacing:0px;fill:#ffffff;fill-opacity:1;stroke:none;stroke-width:1px;stroke-linecap:butt;stroke-linejoin:miter;stroke-opacity:1"
       d="m 810.2312,740.27763 -1.35,2.97 q -2.79,-1.17 -6.75,-2.07 -3.87,-0.99 -7.65,-0.99 -3.42,0 -6.21,0.99 -2.79,0.9 -4.77,2.52 -1.89,1.53 -2.97,3.69 -0.99,2.07 -0.99,4.5 0,2.88 1.44,4.86 1.44,1.98 3.78,3.42 2.43,1.44 5.4,2.61 3.06,1.08 6.21,2.25 3.24,1.17 6.21,2.7 3.06,1.44 5.4,3.6 2.43,2.07 3.87,5.04 1.44,2.88 1.44,7.11 0,4.14 -1.53,7.47 -1.44,3.33 -4.23,5.67 -2.79,2.34 -6.66,3.6 -3.87,1.26 -8.64,1.26 -3.78,0 -6.93,-0.72 -3.06,-0.72 -5.49,-1.71 -2.43,-1.08 -4.23,-2.07 -1.71,-1.08 -2.7,-1.62 l 1.8,-3.33 q 1.44,0.99 3.42,2.07 2.07,0.99 4.32,1.89 2.34,0.81 4.86,1.35 2.52,0.54 5.04,0.54 2.88,0 5.94,-0.81 3.06,-0.9 5.58,-2.61 2.52,-1.8 4.14,-4.5 1.62,-2.79 1.62,-6.57 0,-3.6 -1.44,-6.12 -1.44,-2.52 -3.87,-4.23 -2.34,-1.8 -5.4,-3.06 -2.97,-1.35 -6.21,-2.52 -3.15,-1.17 -6.21,-2.43 -2.97,-1.26 -5.4,-2.97 -2.34,-1.71 -3.78,-4.05 -1.44,-2.34 -1.44,-5.76 0,-3.15 1.26,-5.94 1.35,-2.88 3.69,-4.95 2.43,-2.16 5.76,-3.33 3.33,-1.26 7.38,-1.26 2.07,0 4.32,0.36 2.34,0.27 4.59,0.81 2.25,0.45 4.14,1.08 1.98,0.63 3.24,1.26 z" />
    <path
       inkscape:connector-curvature="0"
       id="path4258"
       style="font-style:normal;font-variant:normal;font-weight:300;font-stretch:normal;font-size:90px;line-height:100%;font-family:'Josefin Sans';-inkscape-font-specification:'Josefin Sans Light';letter-spacing:15px;word-spacing:0px;fill:#ffffff;fill-opacity:1;stroke:none;stroke-width:1px;stroke-linecap:butt;stroke-linejoin:miter;stroke-opacity:1"
       d="m 846.5626,769.88763 9.9,0 q 4.77,0 7.92,-1.53 3.15,-1.53 4.95,-3.78 1.89,-2.34 2.61,-4.95 0.72,-2.7 0.72,-4.86 0,-2.97 -1.17,-5.49 -1.08,-2.61 -3.24,-4.5 -2.07,-1.98 -5.04,-3.06 -2.97,-1.08 -6.66,-1.08 l -9.99,0 0,29.25 z m -3.78,30.87 0,-63.63 14.13,0 q 3.33,0 6.75,0.99 3.51,0.99 6.3,3.15 2.88,2.07 4.68,5.49 1.8,3.33 1.8,8.1 0,3.51 -1.17,6.84 -1.08,3.33 -3.51,6.03 -2.43,2.61 -6.3,4.23 -3.78,1.53 -9.09,1.53 l -9.81,0 0,27.27 -3.78,0 z" />
    <path
       inkscape:connector-curvature="0"
       id="path4260"
       style="font-style:normal;font-variant:normal;font-weight:300;font-stretch:normal;font-size:90px;line-height:100%;font-family:'Josefin Sans';-inkscape-font-specification:'Josefin Sans Light';letter-spacing:15px;word-spacing:0px;fill:#ffffff;fill-opacity:1;stroke:none;stroke-width:1px;stroke-linecap:butt;stroke-linejoin:miter;stroke-opacity:1"
       d="m 942.87901,800.75763 q -2.34,-5.67 -5.04,-12.24 -2.61,-6.57 -5.31,-13.59 l -25.74,0 q -2.7,7.02 -5.31,13.59 -2.61,6.57 -4.95,12.24 l -3.78,0 q 1.89,-4.41 4.05,-9.81 2.25,-5.4 4.59,-11.34 2.43,-5.94 4.86,-12.06 2.43,-6.21 4.77,-12.15 2.43,-5.94 4.59,-11.34 2.25,-5.49 4.14,-9.9 1.8,4.41 3.96,9.9 2.25,5.4 4.59,11.34 2.43,5.94 4.86,12.15 2.43,6.12 4.77,12.06 2.43,5.94 4.59,11.34 2.25,5.4 4.14,9.81 l -3.78,0 z m -24.03,-56.07 q -2.52,5.94 -5.22,12.87 -2.7,6.84 -5.58,14.13 l 23.22,0 q -2.79,-7.29 -5.58,-14.13 -2.7,-6.93 -5.13,-12.87 l -0.81,-2.61 q -0.18,0.72 -0.45,1.44 -0.27,0.72 -0.45,1.17 z" />
    <path
       inkscape:connector-curvature="0"
       id="path4262"
       style="font-style:normal;font-variant:normal;font-weight:300;font-stretch:normal;font-size:90px;line-height:100%;font-family:'Josefin Sans';-inkscape-font-specification:'Josefin Sans Light';letter-spacing:15px;word-spacing:0px;fill:#ffffff;fill-opacity:1;stroke:none;stroke-width:1px;stroke-linecap:butt;stroke-linejoin:miter;stroke-opacity:1"
       d="m 1016.3017,796.70763 q -3.15,1.98 -7.65,3.42 -4.41,1.35 -9.99003,1.35 -7.29,0 -13.23,-2.52 -5.94,-2.61 -10.17,-7.02 -4.14,-4.41 -6.48,-10.26 -2.25,-5.85 -2.25,-12.33 0,-7.02 2.52,-12.96 2.61,-6.03 7.02,-10.44 4.5,-4.5 10.35,-7.02 5.94,-2.52 12.69,-2.52 4.86003,0 9.27003,1.26 4.41,1.17 7.56,3.24 -0.54,0.81 -0.81,1.35 -0.27,0.45 -0.99,1.62 -3.15,-1.98 -7.11,-2.97 -3.87,-0.99 -7.74003,-0.99 -6.03,0 -11.34,2.34 -5.31,2.25 -9.27,6.3 -3.87,3.96 -6.21,9.27 -2.25,5.31 -2.25,11.34 0,5.67 1.98,10.89 2.07,5.13 5.76,9.09 3.78,3.87 9,6.21 5.31,2.34 11.7,2.34 4.95003,0 9.09003,-1.26 4.14,-1.35 6.84,-3.06 l 1.71,3.33 z" />
    <path
       inkscape:connector-curvature="0"
       id="path4264"
       style="font-style:normal;font-variant:normal;font-weight:300;font-stretch:normal;font-size:90px;line-height:100%;font-family:'Josefin Sans';-inkscape-font-specification:'Josefin Sans Light';letter-spacing:15px;word-spacing:0px;fill:#ffffff;fill-opacity:1;stroke:none;stroke-width:1px;stroke-linecap:butt;stroke-linejoin:miter;stroke-opacity:1"
       d="m 1044.5795,800.75763 0,-63.63 38.97,0 0,3.42 -35.19,0 0,26.46 31.59,0 0,3.42 -31.59,0 0,26.82 36.45,0 0,3.51 -40.23,0 z" />
    <path
       style="fill:#ffffff;fill-rule:evenodd;stroke:#ffffff;stroke-width:10;stroke-linecap:butt;stroke-linejoin:miter;stroke-miterlimit:4;stroke-dasharray:none;stroke-opacity:1"
       d="m 432.4481,869.6119 0,-201.42857 z"
       id="path3409"
       inkscape:connector-curvature="0" />
  </g>
</svg>
